solid netdem
facet normal -0.128767 -0.987307 -0.0929727
outer loop
vertex -0.00136843 -0.0488185 -0.0107181
vertex -0.00336059 -0.0498169 0.00264281
vertex -0.0139749 -0.0475862 -0.00634473
endloop
endfacet
facet normal 0.285154 0.399624 -0.871199
outer loop
vertex 0.0066903 0.0206522 -0.0450414
vertex 0.0195898 0.0237462 -0.0394
vertex 0.0162811 0.0127711 -0.0455173
endloop
endfacet
facet normal 0.432639 0.794355 0.426409
outer loop
vertex 0.0165487 0.0386165 0.0271092
vertex 0.0281323 0.0373157 0.0177797
vertex 0.017818 0.0438996 0.0159794
endloop
endfacet
facet normal -0.157746 0.359463 0.91973
outer loop
vertex -0.000648463 0.0163628 0.0472423
vertex -0.0115769 0.0235579 0.0425559
vertex -0.0125923 0.0121666 0.0468338
endloop
endfacet
facet normal 0.236788 0.514961 -0.823861
outer loop
vertex 0.00768336 0.0319089 -0.0377199
vertex 0.0195898 0.0237462 -0.0394
vertex 0.0066903 0.0206522 -0.0450414
endloop
endfacet
facet normal -0.525855 -0.638234 -0.562258
outer loop
vertex -0.0205729 -0.0369899 -0.0266177
vertex -0.032059 -0.030704 -0.0230106
vertex -0.0261687 -0.0262995 -0.0335192
endloop
endfacet
facet normal -0.697911 0.534679 -0.476485
outer loop
vertex -0.0369414 0.0293449 -0.0165594
vertex -0.0287816 0.0299517 -0.0278301
vertex -0.0391472 0.0199735 -0.0238443
endloop
endfacet
facet normal 0.608575 0.747075 -0.267425
outer loop
vertex 0.0255454 0.0420094 -0.00909086
vertex 0.0363538 0.0321976 -0.0119044
vertex 0.0275233 0.0362319 -0.0207295
endloop
endfacet
facet normal 0.753059 0.3728 -0.542145
outer loop
vertex 0.0327959 0.0177046 -0.0333314
vertex 0.036781 0.0251725 -0.0226607
vertex 0.0420431 0.0129024 -0.0237888
endloop
endfacet
facet normal 0.52147 0.365283 -0.771127
outer loop
vertex 0.0327959 0.0177046 -0.0333314
vertex 0.0268052 0.0101152 -0.0409776
vertex 0.0195898 0.0237462 -0.0394
endloop
endfacet
facet normal -0.639083 -0.765597 -0.07372
outer loop
vertex -0.0351429 -0.0354345 0.00306085
vertex -0.0333328 -0.0355842 -0.0110764
vertex -0.0256669 -0.0428675 -0.00189455
endloop
endfacet
facet normal -0.219329 -0.975504 0.0169113
outer loop
vertex -0.0139749 -0.0475862 -0.00634473
vertex -0.00336059 -0.0498169 0.00264281
vertex -0.0159034 -0.0469263 0.00670843
endloop
endfacet
facet normal 0.291885 -0.154295 -0.943926
outer loop
vertex 0.0182001 -0.0143145 -0.0443153
vertex 0.00683727 -0.00665021 -0.0490818
vertex 0.0181659 -0.000522859 -0.0465803
endloop
endfacet
facet normal 0.629367 -0.658699 0.412327
outer loop
vertex 0.0368307 -0.0269831 0.0203815
vertex 0.0264853 -0.0327926 0.026892
vertex 0.0290675 -0.037896 0.0147976
endloop
endfacet
facet normal 0.725618 -0.68774 0.022194
outer loop
vertex 0.0380584 -0.0313859 0.00815378
vertex 0.030444 -0.0396505 0.00100147
vertex 0.0382451 -0.0316454 -0.00599035
endloop
endfacet
facet normal 0.794519 0.522374 -0.30962
outer loop
vertex 0.036781 0.0251725 -0.0226607
vertex 0.0363538 0.0321976 -0.0119044
vertex 0.043968 0.0202947 -0.0124473
endloop
endfacet
facet normal 0.695842 -0.650623 0.304127
outer loop
vertex 0.0380584 -0.0313859 0.00815378
vertex 0.0368307 -0.0269831 0.0203815
vertex 0.0290675 -0.037896 0.0147976
endloop
endfacet
facet normal -0.627694 -0.00475453 -0.778446
outer loop
vertex -0.0295051 0.00710402 -0.0397364
vertex -0.0255959 -0.00329648 -0.042825
vertex -0.0355567 -0.00509072 -0.0347823
endloop
endfacet
facet normal -0.35079 -0.836867 -0.420238
outer loop
vertex -0.0105216 -0.0450789 -0.0188995
vertex -0.0230866 -0.0416522 -0.0152348
vertex -0.0205729 -0.0369899 -0.0266177
endloop
endfacet
facet normal -0.486013 0.637504 0.597813
outer loop
vertex -0.02116 0.0275962 0.0359264
vertex -0.0195677 0.0375069 0.0266522
vertex -0.0308986 0.0295349 0.0259416
endloop
endfacet
facet normal -0.107404 -0.650118 -0.752204
outer loop
vertex -0.0134285 -0.0315349 -0.0364036
vertex -0.0033561 -0.026197 -0.0424553
vertex 0.00186227 -0.0355057 -0.0351551
endloop
endfacet
facet normal -0.551074 0.534046 0.641181
outer loop
vertex -0.0308986 0.0295349 0.0259416
vertex -0.03077 0.0201449 0.0338731
vertex -0.02116 0.0275962 0.0359264
endloop
endfacet
facet normal 0.649735 -0.27944 0.706936
outer loop
vertex 0.0262827 -0.0133954 0.0403706
vertex 0.0329563 -0.0208546 0.0312884
vertex 0.0368592 -0.0077356 0.032887
endloop
endfacet
facet normal 0.0823498 -0.991336 0.102331
outer loop
vertex -0.00336059 -0.0498169 0.00264281
vertex 0.00931434 -0.0491184 -0.000790671
vertex 0.00764503 -0.0479395 0.0119731
endloop
endfacet
facet normal 0.851274 0.132254 0.507781
outer loop
vertex 0.0445344 -0.00043013 0.0227267
vertex 0.042775 0.0136234 0.0220159
vertex 0.0382132 0.00557854 0.031759
endloop
endfacet
facet normal 0.0624703 0.0166099 0.997909
outer loop
vertex 0.00501876 -0.00661684 0.0493055
vertex 0.00827685 0.00647161 0.0488837
vertex -0.00427609 0.00298001 0.0497276
endloop
endfacet
facet normal -0.391208 0.417796 0.820001
outer loop
vertex -0.0238362 0.0135197 0.0418217
vertex -0.0115769 0.0235579 0.0425559
vertex -0.02116 0.0275962 0.0359264
endloop
endfacet
facet normal 0.213312 0.929327 0.301411
outer loop
vertex 0.017818 0.0438996 0.0159794
vertex 0.0101186 0.0483601 0.0076756
vertex 0.00587677 0.0450541 0.0208708
endloop
endfacet
facet normal -0.135164 0.989967 -0.0411884
outer loop
vertex -0.0126292 0.0482864 0.00298738
vertex 0.00099375 0.0499797 -0.00101873
vertex -0.00803733 0.0483851 -0.00971005
endloop
endfacet
facet normal 0.0140927 0.85106 0.524879
outer loop
vertex 0.00587677 0.0450541 0.0208708
vertex -0.00696255 0.0430014 0.0245438
vertex 0.00360644 0.0381692 0.0320953
endloop
endfacet
facet normal -0.697826 0.662329 0.272689
outer loop
vertex -0.0392672 0.0267508 0.0155718
vertex -0.0288077 0.0373984 0.0164765
vertex -0.0362846 0.0339028 0.00583299
endloop
endfacet
facet normal -0.179371 0.920414 0.347368
outer loop
vertex -0.0033162 0.0483844 0.0121635
vertex -0.0166247 0.0445733 0.0153896
vertex -0.00696255 0.0430014 0.0245438
endloop
endfacet
facet normal 0.918322 -0.261478 -0.297178
outer loop
vertex 0.0481684 -0.00627583 -0.01185
vertex 0.0447765 -0.0195205 -0.0106777
vertex 0.0426623 -0.0142989 -0.0218053
endloop
endfacet
facet normal 0.701397 -0.0109432 0.712687
outer loop
vertex 0.0290189 -0.000752547 0.0407104
vertex 0.0368592 -0.0077356 0.032887
vertex 0.0382132 0.00557854 0.031759
endloop
endfacet
facet normal 0.662168 -0.562417 -0.495198
outer loop
vertex 0.0272153 -0.0330698 -0.0258015
vertex 0.0342276 -0.0218366 -0.0291827
vertex 0.0374728 -0.0275426 -0.0183628
endloop
endfacet
facet normal 0.798741 0.536745 0.27188
outer loop
vertex 0.0365363 0.0327214 0.00971636
vertex 0.0368677 0.02662 0.0207882
vertex 0.0441391 0.0208415 0.0108337
endloop
endfacet
facet normal 0.829906 0.392376 -0.396606
outer loop
vertex 0.0420431 0.0129024 -0.0237888
vertex 0.036781 0.0251725 -0.0226607
vertex 0.043968 0.0202947 -0.0124473
endloop
endfacet
facet normal -0.281927 0.954767 -0.094537
outer loop
vertex -0.00803733 0.0483851 -0.00971005
vertex -0.0211908 0.0448198 -0.00649115
vertex -0.0126292 0.0482864 0.00298738
endloop
endfacet
facet normal 0.57071 -0.541958 -0.616905
outer loop
vertex 0.0272153 -0.0330698 -0.0258015
vertex 0.0226743 -0.0261345 -0.0360952
vertex 0.0342276 -0.0218366 -0.0291827
endloop
endfacet
facet normal -0.000959495 -0.807458 -0.589924
outer loop
vertex 0.0039522 -0.0437657 -0.0238526
vertex -0.00772916 -0.0399 -0.0291247
vertex 0.00186227 -0.0355057 -0.0351551
endloop
endfacet
facet normal -0.439904 -0.620121 0.649565
outer loop
vertex -0.0238983 -0.0242931 0.0365885
vertex -0.0245348 -0.0350183 0.0259184
vertex -0.0144587 -0.0329781 0.0346899
endloop
endfacet
facet normal 0.0855871 -0.504739 -0.859019
outer loop
vertex 0.00638066 -0.0184812 -0.0460188
vertex 0.011113 -0.027544 -0.0402222
vertex -0.0033561 -0.026197 -0.0424553
endloop
endfacet
facet normal -0.409511 -0.636372 -0.653706
outer loop
vertex -0.0205729 -0.0369899 -0.0266177
vertex -0.0261687 -0.0262995 -0.0335192
vertex -0.0134285 -0.0315349 -0.0364036
endloop
endfacet
facet normal -0.747216 -0.51439 0.420799
outer loop
vertex -0.0421174 -0.0204003 0.0176055
vertex -0.0350315 -0.0316898 0.0163875
vertex -0.0331232 -0.0251995 0.0277099
endloop
endfacet
facet normal -0.220683 0.951621 0.213813
outer loop
vertex -0.0126292 0.0482864 0.00298738
vertex -0.0166247 0.0445733 0.0153896
vertex -0.0033162 0.0483844 0.0121635
endloop
endfacet
facet normal 0.244954 0.93629 -0.25171
outer loop
vertex 0.0162397 0.0434603 -0.0186407
vertex 0.00452436 0.0476498 -0.0144579
vertex 0.0143881 0.0476306 -0.00493005
endloop
endfacet
facet normal -0.730347 -0.197579 0.653878
outer loop
vertex -0.031299 -0.0132945 0.0366555
vertex -0.0386573 -0.00289548 0.0315789
vertex -0.0391965 -0.0144001 0.0275004
endloop
endfacet
facet normal 0.774691 0.259226 0.576764
outer loop
vertex 0.042775 0.0136234 0.0220159
vertex 0.0344202 0.0193986 0.0306422
vertex 0.0382132 0.00557854 0.031759
endloop
endfacet
facet normal 0.0810986 0.440113 0.894273
outer loop
vertex 0.00122892 0.0283241 0.0411854
vertex -0.000648463 0.0163628 0.0472423
vertex 0.011458 0.019657 0.0445232
endloop
endfacet
facet normal -0.0833583 0.782315 0.61728
outer loop
vertex -0.00696255 0.0430014 0.0245438
vertex -0.00921639 0.0345592 0.0349388
vertex 0.00360644 0.0381692 0.0320953
endloop
endfacet
facet normal 0.322605 0.486468 0.811957
outer loop
vertex 0.011458 0.019657 0.0445232
vertex 0.0231035 0.0217714 0.0386294
vertex 0.0139426 0.0307023 0.0369185
endloop
endfacet
facet normal 0.375183 0.338729 0.862844
outer loop
vertex 0.011458 0.019657 0.0445232
vertex 0.0198357 0.00930681 0.0449436
vertex 0.0231035 0.0217714 0.0386294
endloop
endfacet
facet normal 0.370543 0.901368 -0.224127
outer loop
vertex 0.0255454 0.0420094 -0.00909086
vertex 0.0162397 0.0434603 -0.0186407
vertex 0.0143881 0.0476306 -0.00493005
endloop
endfacet
facet normal -0.304061 0.928214 -0.214395
outer loop
vertex -0.00803733 0.0483851 -0.00971005
vertex -0.0164403 0.0438003 -0.0176422
vertex -0.0211908 0.0448198 -0.00649115
endloop
endfacet
facet normal -0.422724 0.7935 -0.437794
outer loop
vertex -0.0272362 0.0379829 -0.017762
vertex -0.0164403 0.0438003 -0.0176422
vertex -0.0174067 0.0375167 -0.0280981
endloop
endfacet
facet normal 0.0461518 0.900817 -0.431739
outer loop
vertex 0.00604294 0.0413277 -0.0274864
vertex -0.00543653 0.0441154 -0.022897
vertex 0.00452436 0.0476498 -0.0144579
endloop
endfacet
facet normal 0.680054 0.65053 0.338137
outer loop
vertex 0.0281323 0.0373157 0.0177797
vertex 0.0368677 0.02662 0.0207882
vertex 0.0365363 0.0327214 0.00971636
endloop
endfacet
facet normal 0.173218 0.984882 0.00167569
outer loop
vertex 0.00099375 0.0499797 -0.00101873
vertex 0.0101186 0.0483601 0.0076756
vertex 0.0143881 0.0476306 -0.00493005
endloop
endfacet
facet normal -0.336979 0.671605 0.659842
outer loop
vertex -0.00921639 0.0345592 0.0349388
vertex -0.0195677 0.0375069 0.0266522
vertex -0.02116 0.0275962 0.0359264
endloop
endfacet
facet normal -0.384387 0.168211 0.907718
outer loop
vertex -0.0125923 0.0121666 0.0468338
vertex -0.0238362 0.0135197 0.0418217
vertex -0.01774 0.000920216 0.046738
endloop
endfacet
facet normal -0.831234 0.449713 -0.326815
outer loop
vertex -0.0391472 0.0199735 -0.0238443
vertex -0.0455036 0.0175806 -0.01097
vertex -0.0369414 0.0293449 -0.0165594
endloop
endfacet
facet normal -0.899636 -0.361714 -0.244575
outer loop
vertex -0.0461935 -0.0109747 -0.0156753
vertex -0.0409722 -0.0230016 -0.0170939
vertex -0.0467828 -0.0170602 -0.00450753
endloop
endfacet
facet normal 0.913975 0.133796 0.383078
outer loop
vertex 0.0445344 -0.00043013 0.0227267
vertex 0.0480831 0.00746225 0.0115033
vertex 0.042775 0.0136234 0.0220159
endloop
endfacet
facet normal 0.987896 0.00967292 0.154815
outer loop
vertex 0.0481453 -0.00623878 0.0119628
vertex 0.0499854 0.00118225 -0.000243094
vertex 0.0480831 0.00746225 0.0115033
endloop
endfacet
facet normal 0.818351 -0.528304 -0.226268
outer loop
vertex 0.0374728 -0.0275426 -0.0183628
vertex 0.0447765 -0.0195205 -0.0106777
vertex 0.0382451 -0.0316454 -0.00599035
endloop
endfacet
facet normal 0.708584 -0.655363 -0.26155
outer loop
vertex 0.0297131 -0.0379324 -0.0133517
vertex 0.0374728 -0.0275426 -0.0183628
vertex 0.0382451 -0.0316454 -0.00599035
endloop
endfacet
facet normal 0.950344 0.0147359 0.310854
outer loop
vertex 0.0481453 -0.00623878 0.0119628
vertex 0.0480831 0.00746225 0.0115033
vertex 0.0445344 -0.00043013 0.0227267
endloop
endfacet
facet normal 0.453207 0.0389685 0.890553
outer loop
vertex 0.0290189 -0.000752547 0.0407104
vertex 0.0198357 0.00930681 0.0449436
vertex 0.0176967 -0.0038254 0.0466068
endloop
endfacet
facet normal 0.906811 0.135118 -0.399294
outer loop
vertex 0.0478672 0.00733933 -0.0124446
vertex 0.0443093 -0.000454471 -0.0231621
vertex 0.0420431 0.0129024 -0.0237888
endloop
endfacet
facet normal 0.660849 0.476216 -0.580083
outer loop
vertex 0.0273733 0.0283836 -0.0307421
vertex 0.036781 0.0251725 -0.0226607
vertex 0.0327959 0.0177046 -0.0333314
endloop
endfacet
facet normal -0.186779 0.923242 -0.335764
outer loop
vertex -0.00803733 0.0483851 -0.00971005
vertex -0.00543653 0.0441154 -0.022897
vertex -0.0164403 0.0438003 -0.0176422
endloop
endfacet
facet normal -0.253693 0.83926 -0.480918
outer loop
vertex -0.0164403 0.0438003 -0.0176422
vertex -0.00543653 0.0441154 -0.022897
vertex -0.0174067 0.0375167 -0.0280981
endloop
endfacet
facet normal 0.280746 0.115989 -0.952748
outer loop
vertex 0.0181659 -0.000522859 -0.0465803
vertex 0.00658102 0.00622602 -0.0491724
vertex 0.0162811 0.0127711 -0.0455173
endloop
endfacet
facet normal -0.45786 0.184921 -0.869579
outer loop
vertex -0.0295051 0.00710402 -0.0397364
vertex -0.0226918 0.0168184 -0.041258
vertex -0.016506 0.00601907 -0.0468116
endloop
endfacet
facet normal 0.448099 -0.143793 -0.882344
outer loop
vertex 0.0182001 -0.0143145 -0.0443153
vertex 0.0181659 -0.000522859 -0.0465803
vertex 0.028761 -0.00306926 -0.0407846
endloop
endfacet
facet normal 0.449702 -0.388945 -0.804046
outer loop
vertex 0.0182001 -0.0143145 -0.0443153
vertex 0.0286843 -0.0151373 -0.0380536
vertex 0.0226743 -0.0261345 -0.0360952
endloop
endfacet
facet normal -0.421936 -0.891879 -0.162857
outer loop
vertex -0.0256669 -0.0428675 -0.00189455
vertex -0.0230866 -0.0416522 -0.0152348
vertex -0.0139749 -0.0475862 -0.00634473
endloop
endfacet
facet normal 0.0362227 -0.996952 -0.0690929
outer loop
vertex -0.00136843 -0.0488185 -0.0107181
vertex 0.00931434 -0.0491184 -0.000790671
vertex -0.00336059 -0.0498169 0.00264281
endloop
endfacet
facet normal -0.0801957 -0.880231 -0.46772
outer loop
vertex -0.0105216 -0.0450789 -0.0188995
vertex -0.00772916 -0.0399 -0.0291247
vertex 0.0039522 -0.0437657 -0.0238526
endloop
endfacet
facet normal -0.249974 -0.30055 -0.920425
outer loop
vertex -0.0162787 -0.0206769 -0.0425143
vertex -0.016019 -0.00826511 -0.0466377
vertex -0.00511604 -0.0139887 -0.0477299
endloop
endfacet
facet normal 0.137199 -0.787483 -0.600872
outer loop
vertex 0.0144489 -0.0365823 -0.0308701
vertex 0.0039522 -0.0437657 -0.0238526
vertex 0.00186227 -0.0355057 -0.0351551
endloop
endfacet
facet normal 0.413056 -0.744597 -0.524366
outer loop
vertex 0.0272153 -0.0330698 -0.0258015
vertex 0.0187475 -0.0417352 -0.020167
vertex 0.0144489 -0.0365823 -0.0308701
endloop
endfacet
facet normal -0.910768 -0.271868 0.310788
outer loop
vertex -0.0421174 -0.0204003 0.0176055
vertex -0.0454624 -0.00685591 0.0196511
vertex -0.0477534 -0.0124414 0.00805122
endloop
endfacet
facet normal -0.474738 0.110988 0.873101
outer loop
vertex -0.0238362 0.0135197 0.0418217
vertex -0.0289794 -1.36606e-05 0.0407455
vertex -0.01774 0.000920216 0.046738
endloop
endfacet
facet normal -0.848998 -0.248056 -0.466553
outer loop
vertex -0.0461935 -0.0109747 -0.0156753
vertex -0.0431766 -0.00394125 -0.0249048
vertex -0.0373982 -0.0173473 -0.0282921
endloop
endfacet
facet normal -0.93328 -0.0635337 -0.353486
outer loop
vertex -0.0484179 0.00250254 -0.0122248
vertex -0.0431766 -0.00394125 -0.0249048
vertex -0.0461935 -0.0109747 -0.0156753
endloop
endfacet
facet normal -0.577096 0.284868 -0.765382
outer loop
vertex -0.0295051 0.00710402 -0.0397364
vertex -0.0312345 0.0195322 -0.0338068
vertex -0.0226918 0.0168184 -0.041258
endloop
endfacet
facet normal -0.533709 0.819036 -0.210559
outer loop
vertex -0.0272362 0.0379829 -0.017762
vertex -0.0321688 0.0378229 -0.0058814
vertex -0.0211908 0.0448198 -0.00649115
endloop
endfacet
facet normal -0.533622 -0.734754 -0.418789
outer loop
vertex -0.0205729 -0.0369899 -0.0266177
vertex -0.0230866 -0.0416522 -0.0152348
vertex -0.032059 -0.030704 -0.0230106
endloop
endfacet
facet normal -0.720759 0.3151 0.617429
outer loop
vertex -0.0395949 0.0179845 0.0246739
vertex -0.0355422 0.00897423 0.0340032
vertex -0.03077 0.0201449 0.0338731
endloop
endfacet
facet normal -0.622293 -0.629264 0.465593
outer loop
vertex -0.0350315 -0.0316898 0.0163875
vertex -0.0245348 -0.0350183 0.0259184
vertex -0.0331232 -0.0251995 0.0277099
endloop
endfacet
facet normal 0.306422 -0.605898 0.734162
outer loop
vertex 0.0215629 -0.0255542 0.0371756
vertex 0.00899692 -0.0277526 0.040606
vertex 0.0143166 -0.0360894 0.0315054
endloop
endfacet
facet normal 0.845117 -0.1508 -0.512871
outer loop
vertex 0.0443093 -0.000454471 -0.0231621
vertex 0.0426623 -0.0142989 -0.0218053
vertex 0.0376372 -0.0082297 -0.0318703
endloop
endfacet
facet normal 0.91292 -0.249639 0.322889
outer loop
vertex 0.0481453 -0.00623878 0.0119628
vertex 0.0421089 -0.0139358 0.0230788
vertex 0.0445291 -0.0192257 0.0121463
endloop
endfacet
facet normal 0.262559 0.85975 0.438055
outer loop
vertex 0.00587677 0.0450541 0.0208708
vertex 0.0165487 0.0386165 0.0271092
vertex 0.017818 0.0438996 0.0159794
endloop
endfacet
facet normal 0.17983 0.821893 0.540511
outer loop
vertex 0.00360644 0.0381692 0.0320953
vertex 0.0165487 0.0386165 0.0271092
vertex 0.00587677 0.0450541 0.0208708
endloop
endfacet
facet normal 0.673364 0.630946 -0.385342
outer loop
vertex 0.0275233 0.0362319 -0.0207295
vertex 0.0363538 0.0321976 -0.0119044
vertex 0.036781 0.0251725 -0.0226607
endloop
endfacet
facet normal 0.433757 0.899521 -0.0521221
outer loop
vertex 0.0143881 0.0476306 -0.00493005
vertex 0.0240774 0.0435341 0.00500604
vertex 0.0255454 0.0420094 -0.00909086
endloop
endfacet
facet normal 0.314741 0.608955 -0.728088
outer loop
vertex 0.00768336 0.0319089 -0.0377199
vertex 0.0174847 0.0357467 -0.030273
vertex 0.0195898 0.0237462 -0.0394
endloop
endfacet
facet normal 0.465522 0.821701 -0.328781
outer loop
vertex 0.0275233 0.0362319 -0.0207295
vertex 0.0162397 0.0434603 -0.0186407
vertex 0.0255454 0.0420094 -0.00909086
endloop
endfacet
facet normal -0.0972972 0.991343 0.088162
outer loop
vertex -0.0126292 0.0482864 0.00298738
vertex -0.0033162 0.0483844 0.0121635
vertex 0.00099375 0.0499797 -0.00101873
endloop
endfacet
facet normal 0.0918224 0.958562 0.26968
outer loop
vertex 0.00587677 0.0450541 0.0208708
vertex 0.0101186 0.0483601 0.0076756
vertex -0.0033162 0.0483844 0.0121635
endloop
endfacet
facet normal -0.676743 0.632819 0.376243
outer loop
vertex -0.0308986 0.0295349 0.0259416
vertex -0.0288077 0.0373984 0.0164765
vertex -0.0392672 0.0267508 0.0155718
endloop
endfacet
facet normal -0.106832 0.209459 0.971964
outer loop
vertex -0.00427609 0.00298001 0.0497276
vertex -0.000648463 0.0163628 0.0472423
vertex -0.0125923 0.0121666 0.0468338
endloop
endfacet
facet normal 0.24358 -0.18603 0.951873
outer loop
vertex 0.00501876 -0.00661684 0.0493055
vertex 0.0140737 -0.0164716 0.0450624
vertex 0.0176967 -0.0038254 0.0466068
endloop
endfacet
facet normal -0.229856 0.0969626 0.968382
outer loop
vertex -0.01774 0.000920216 0.046738
vertex -0.00427609 0.00298001 0.0497276
vertex -0.0125923 0.0121666 0.0468338
endloop
endfacet
facet normal 0.12691 0.656171 0.743864
outer loop
vertex 0.00122892 0.0283241 0.0411854
vertex 0.0139426 0.0307023 0.0369185
vertex 0.00360644 0.0381692 0.0320953
endloop
endfacet
facet normal 0.178926 0.530318 0.828703
outer loop
vertex 0.011458 0.019657 0.0445232
vertex 0.0139426 0.0307023 0.0369185
vertex 0.00122892 0.0283241 0.0411854
endloop
endfacet
facet normal -0.935876 0.0125139 0.352108
outer loop
vertex -0.0454624 -0.00685591 0.0196511
vertex -0.0440318 0.00563557 0.0230095
vertex -0.0489523 0.00143228 0.0100806
endloop
endfacet
facet normal -0.849304 0.39518 0.350022
outer loop
vertex -0.0460922 0.0141232 0.0132681
vertex -0.0395949 0.0179845 0.0246739
vertex -0.0392672 0.0267508 0.0155718
endloop
endfacet
facet normal -0.69221 0.460146 0.555978
outer loop
vertex -0.0308986 0.0295349 0.0259416
vertex -0.0395949 0.0179845 0.0246739
vertex -0.03077 0.0201449 0.0338731
endloop
endfacet
facet normal -0.963986 0.200826 -0.174353
outer loop
vertex -0.0484179 0.00250254 -0.0122248
vertex -0.0490374 0.00975375 -0.000447484
vertex -0.0455036 0.0175806 -0.01097
endloop
endfacet
facet normal 0.802801 -0.595858 0.0215272
outer loop
vertex 0.0441699 -0.0234154 0.000857406
vertex 0.0380584 -0.0313859 0.00815378
vertex 0.0382451 -0.0316454 -0.00599035
endloop
endfacet
facet normal 0.848645 -0.504149 0.160109
outer loop
vertex 0.0445291 -0.0192257 0.0121463
vertex 0.0380584 -0.0313859 0.00815378
vertex 0.0441699 -0.0234154 0.000857406
endloop
endfacet
facet normal 0.548129 0.83573 -0.0333122
outer loop
vertex 0.0240774 0.0435341 0.00500604
vertex 0.0334374 0.037168 -0.000693668
vertex 0.0255454 0.0420094 -0.00909086
endloop
endfacet
facet normal 0.990882 -0.103161 0.086663
outer loop
vertex 0.0485899 -0.0117878 0.000274502
vertex 0.0499854 0.00118225 -0.000243094
vertex 0.0481453 -0.00623878 0.0119628
endloop
endfacet
facet normal 0.353829 -0.896935 -0.265166
outer loop
vertex 0.0103709 -0.047068 -0.0133061
vertex 0.0187475 -0.0417352 -0.020167
vertex 0.0210086 -0.0449235 -0.00636505
endloop
endfacet
facet normal 0.639085 -0.664288 -0.387674
outer loop
vertex 0.0272153 -0.0330698 -0.0258015
vertex 0.0374728 -0.0275426 -0.0183628
vertex 0.0297131 -0.0379324 -0.0133517
endloop
endfacet
facet normal 0.23837 -0.83417 -0.497332
outer loop
vertex 0.0144489 -0.0365823 -0.0308701
vertex 0.0187475 -0.0417352 -0.020167
vertex 0.0039522 -0.0437657 -0.0238526
endloop
endfacet
facet normal 0.0663799 -0.939976 -0.334721
outer loop
vertex -0.00136843 -0.0488185 -0.0107181
vertex 0.0039522 -0.0437657 -0.0238526
vertex 0.0103709 -0.047068 -0.0133061
endloop
endfacet
facet normal 0.0689346 -0.591423 -0.80341
outer loop
vertex -0.0033561 -0.026197 -0.0424553
vertex 0.011113 -0.027544 -0.0402222
vertex 0.00186227 -0.0355057 -0.0351551
endloop
endfacet
facet normal 0.954447 -0.257734 -0.150348
outer loop
vertex 0.0485899 -0.0117878 0.000274502
vertex 0.0447765 -0.0195205 -0.0106777
vertex 0.0481684 -0.00627583 -0.01185
endloop
endfacet
facet normal 0.695437 -0.0429155 -0.717305
outer loop
vertex 0.028761 -0.00306926 -0.0407846
vertex 0.0369159 0.00494648 -0.0333579
vertex 0.0376372 -0.0082297 -0.0318703
endloop
endfacet
facet normal 0.655169 0.213084 -0.724809
outer loop
vertex 0.0369159 0.00494648 -0.0333579
vertex 0.0268052 0.0101152 -0.0409776
vertex 0.0327959 0.0177046 -0.0333314
endloop
endfacet
facet normal 0.832253 0.115765 -0.542175
outer loop
vertex 0.0420431 0.0129024 -0.0237888
vertex 0.0443093 -0.000454471 -0.0231621
vertex 0.0369159 0.00494648 -0.0333579
endloop
endfacet
facet normal 0.903738 0.271925 -0.330627
outer loop
vertex 0.043968 0.0202947 -0.0124473
vertex 0.0478672 0.00733933 -0.0124446
vertex 0.0420431 0.0129024 -0.0237888
endloop
endfacet
facet normal -0.442084 0.642555 -0.625847
outer loop
vertex -0.0180292 0.0285042 -0.0369115
vertex -0.0287816 0.0299517 -0.0278301
vertex -0.0174067 0.0375167 -0.0280981
endloop
endfacet
facet normal -0.174975 0.131232 -0.975788
outer loop
vertex -0.00366607 0.0127431 -0.0482097
vertex -0.00525596 -0.000601939 -0.0497193
vertex -0.016506 0.00601907 -0.0468116
endloop
endfacet
facet normal -0.676598 0.479721 -0.558643
outer loop
vertex -0.0287816 0.0299517 -0.0278301
vertex -0.0312345 0.0195322 -0.0338068
vertex -0.0391472 0.0199735 -0.0238443
endloop
endfacet
facet normal -0.737619 0.310461 -0.599611
outer loop
vertex -0.0391472 0.0199735 -0.0238443
vertex -0.0312345 0.0195322 -0.0338068
vertex -0.0382525 0.00783208 -0.0312315
endloop
endfacet
facet normal -0.00241177 0.650225 -0.759738
outer loop
vertex 0.00768336 0.0319089 -0.0377199
vertex -0.00416408 0.0270324 -0.0418558
vertex -0.00544908 0.0364386 -0.0338014
endloop
endfacet
facet normal 0.411664 0.779197 -0.472636
outer loop
vertex 0.0275233 0.0362319 -0.0207295
vertex 0.0174847 0.0357467 -0.030273
vertex 0.0162397 0.0434603 -0.0186407
endloop
endfacet
facet normal 0.780625 -0.424999 -0.458259
outer loop
vertex 0.0342276 -0.0218366 -0.0291827
vertex 0.0426623 -0.0142989 -0.0218053
vertex 0.0374728 -0.0275426 -0.0183628
endloop
endfacet
facet normal 0.626096 0.081524 -0.775473
outer loop
vertex 0.028761 -0.00306926 -0.0407846
vertex 0.0268052 0.0101152 -0.0409776
vertex 0.0369159 0.00494648 -0.0333579
endloop
endfacet
facet normal 0.491568 -0.195185 -0.848684
outer loop
vertex 0.028761 -0.00306926 -0.0407846
vertex 0.0286843 -0.0151373 -0.0380536
vertex 0.0182001 -0.0143145 -0.0443153
endloop
endfacet
facet normal 0.646341 -0.172328 -0.743334
outer loop
vertex 0.0376372 -0.0082297 -0.0318703
vertex 0.0286843 -0.0151373 -0.0380536
vertex 0.028761 -0.00306926 -0.0407846
endloop
endfacet
facet normal -0.387843 -0.52728 -0.756012
outer loop
vertex -0.0134285 -0.0315349 -0.0364036
vertex -0.0261687 -0.0262995 -0.0335192
vertex -0.0162787 -0.0206769 -0.0425143
endloop
endfacet
facet normal 0.216933 -0.00255039 -0.976183
outer loop
vertex 0.0181659 -0.000522859 -0.0465803
vertex 0.00683727 -0.00665021 -0.0490818
vertex 0.00658102 0.00622602 -0.0491724
endloop
endfacet
facet normal -0.0583706 -0.889303 0.453578
outer loop
vertex -0.00853084 -0.0410676 0.0272154
vertex -0.00517936 -0.0472375 0.0155497
vertex 0.00490251 -0.0435978 0.0239832
endloop
endfacet
facet normal 0.155484 -0.422674 0.892845
outer loop
vertex 0.0140737 -0.0164716 0.0450624
vertex 0.000642427 -0.0184206 0.0464787
vertex 0.00899692 -0.0277526 0.040606
endloop
endfacet
facet normal -0.219032 -0.521574 -0.824612
outer loop
vertex -0.0162787 -0.0206769 -0.0425143
vertex -0.0033561 -0.026197 -0.0424553
vertex -0.0134285 -0.0315349 -0.0364036
endloop
endfacet
facet normal -0.171681 -0.411477 -0.895105
outer loop
vertex -0.00511604 -0.0139887 -0.0477299
vertex -0.0033561 -0.026197 -0.0424553
vertex -0.0162787 -0.0206769 -0.0425143
endloop
endfacet
facet normal -0.462849 -0.427865 -0.776339
outer loop
vertex -0.0261687 -0.0262995 -0.0335192
vertex -0.0277581 -0.0150697 -0.0387607
vertex -0.0162787 -0.0206769 -0.0425143
endloop
endfacet
facet normal -0.988439 -0.101846 0.112321
outer loop
vertex -0.0489523 0.00143228 0.0100806
vertex -0.0497535 -0.00441042 -0.00226738
vertex -0.0477534 -0.0124414 0.00805122
endloop
endfacet
facet normal -0.325947 -0.905845 -0.270562
outer loop
vertex -0.0139749 -0.0475862 -0.00634473
vertex -0.0230866 -0.0416522 -0.0152348
vertex -0.0105216 -0.0450789 -0.0188995
endloop
endfacet
facet normal -0.377153 -0.926108 -0.00890284
outer loop
vertex -0.0256669 -0.0428675 -0.00189455
vertex -0.0139749 -0.0475862 -0.00634473
vertex -0.0159034 -0.0469263 0.00670843
endloop
endfacet
facet normal -0.0440039 -0.926312 -0.37418
outer loop
vertex -0.0105216 -0.0450789 -0.0188995
vertex 0.0039522 -0.0437657 -0.0238526
vertex -0.00136843 -0.0488185 -0.0107181
endloop
endfacet
facet normal -0.282705 -0.822383 -0.493724
outer loop
vertex -0.0205729 -0.0369899 -0.0266177
vertex -0.00772916 -0.0399 -0.0291247
vertex -0.0105216 -0.0450789 -0.0188995
endloop
endfacet
facet normal -0.897991 0.432034 -0.0834141
outer loop
vertex -0.0455036 0.0175806 -0.01097
vertex -0.0447952 0.0218942 0.00374561
vertex -0.0408623 0.0283332 -0.00524437
endloop
endfacet
facet normal -0.729779 0.6555 -0.194276
outer loop
vertex -0.0369414 0.0293449 -0.0165594
vertex -0.0408623 0.0283332 -0.00524437
vertex -0.0321688 0.0378229 -0.0058814
endloop
endfacet
facet normal -0.919054 0.026291 -0.393254
outer loop
vertex -0.0445027 0.00900062 -0.0209404
vertex -0.0431766 -0.00394125 -0.0249048
vertex -0.0484179 0.00250254 -0.0122248
endloop
endfacet
facet normal -0.81245 0.258181 -0.52275
outer loop
vertex -0.0391472 0.0199735 -0.0238443
vertex -0.0382525 0.00783208 -0.0312315
vertex -0.0445027 0.00900062 -0.0209404
endloop
endfacet
facet normal -0.454269 0.848611 -0.271109
outer loop
vertex -0.0211908 0.0448198 -0.00649115
vertex -0.0164403 0.0438003 -0.0176422
vertex -0.0272362 0.0379829 -0.017762
endloop
endfacet
facet normal -0.395512 0.918211 0.0214298
outer loop
vertex -0.0211908 0.0448198 -0.00649115
vertex -0.0254573 0.042707 0.00529542
vertex -0.0126292 0.0482864 0.00298738
endloop
endfacet
facet normal -0.870075 0.32705 -0.368792
outer loop
vertex -0.0445027 0.00900062 -0.0209404
vertex -0.0455036 0.0175806 -0.01097
vertex -0.0391472 0.0199735 -0.0238443
endloop
endfacet
facet normal -0.940844 0.204337 -0.270295
outer loop
vertex -0.0484179 0.00250254 -0.0122248
vertex -0.0455036 0.0175806 -0.01097
vertex -0.0445027 0.00900062 -0.0209404
endloop
endfacet
facet normal -0.763193 -0.620388 0.180707
outer loop
vertex -0.0427972 -0.025069 0.00632001
vertex -0.0351429 -0.0354345 0.00306085
vertex -0.0350315 -0.0316898 0.0163875
endloop
endfacet
facet normal -0.899411 -0.382108 0.212255
outer loop
vertex -0.0477534 -0.0124414 0.00805122
vertex -0.0427972 -0.025069 0.00632001
vertex -0.0421174 -0.0204003 0.0176055
endloop
endfacet
facet normal -0.319988 -0.133952 0.937904
outer loop
vertex -0.0213769 -0.0114083 0.0437365
vertex -0.00875907 -0.00925721 0.0483486
vertex -0.01774 0.000920216 0.046738
endloop
endfacet
facet normal -0.862929 -0.276951 0.422671
outer loop
vertex -0.0421174 -0.0204003 0.0176055
vertex -0.0391965 -0.0144001 0.0275004
vertex -0.0454624 -0.00685591 0.0196511
endloop
endfacet
facet normal -0.802517 -0.532692 0.268713
outer loop
vertex -0.0427972 -0.025069 0.00632001
vertex -0.0350315 -0.0316898 0.0163875
vertex -0.0421174 -0.0204003 0.0176055
endloop
endfacet
facet normal -0.573266 -0.727299 0.377361
outer loop
vertex -0.0350315 -0.0316898 0.0163875
vertex -0.0268616 -0.0404581 0.0118992
vertex -0.0245348 -0.0350183 0.0259184
endloop
endfacet
facet normal 0.243778 -0.821717 0.515124
outer loop
vertex 0.00490251 -0.0435978 0.0239832
vertex 0.0177224 -0.0421605 0.0202091
vertex 0.0143166 -0.0360894 0.0315054
endloop
endfacet
facet normal 0.338751 -0.940872 0.00262138
outer loop
vertex 0.0199772 -0.0452569 0.00726104
vertex 0.00931434 -0.0491184 -0.000790671
vertex 0.0210086 -0.0449235 -0.00636505
endloop
endfacet
facet normal -0.344187 0.356826 0.868453
outer loop
vertex -0.0125923 0.0121666 0.0468338
vertex -0.0115769 0.0235579 0.0425559
vertex -0.0238362 0.0135197 0.0418217
endloop
endfacet
facet normal 0.661264 0.0922612 0.744458
outer loop
vertex 0.0382132 0.00557854 0.031759
vertex 0.0298317 0.0113407 0.0384897
vertex 0.0290189 -0.000752547 0.0407104
endloop
endfacet
facet normal -0.1431 -0.336728 0.930665
outer loop
vertex -0.0131283 -0.0210615 0.0434058
vertex 0.000642427 -0.0184206 0.0464787
vertex -0.00875907 -0.00925721 0.0483486
endloop
endfacet
facet normal 0.475082 0.295342 0.828897
outer loop
vertex 0.0231035 0.0217714 0.0386294
vertex 0.0198357 0.00930681 0.0449436
vertex 0.0298317 0.0113407 0.0384897
endloop
endfacet
facet normal -0.235319 -0.55652 0.796812
outer loop
vertex -0.0144587 -0.0329781 0.0346899
vertex -0.00409923 -0.028649 0.0407729
vertex -0.0131283 -0.0210615 0.0434058
endloop
endfacet
facet normal 0.0454064 -0.502633 0.863307
outer loop
vertex 0.00899692 -0.0277526 0.040606
vertex 0.000642427 -0.0184206 0.0464787
vertex -0.00409923 -0.028649 0.0407729
endloop
endfacet
facet normal 0.0708569 0.539462 -0.839024
outer loop
vertex 0.0066903 0.0206522 -0.0450414
vertex -0.00416408 0.0270324 -0.0418558
vertex 0.00768336 0.0319089 -0.0377199
endloop
endfacet
facet normal 0.273014 0.814955 -0.511187
outer loop
vertex 0.0174847 0.0357467 -0.030273
vertex 0.00604294 0.0413277 -0.0274864
vertex 0.0162397 0.0434603 -0.0186407
endloop
endfacet
facet normal 0.626097 0.6091 -0.486826
outer loop
vertex 0.0275233 0.0362319 -0.0207295
vertex 0.036781 0.0251725 -0.0226607
vertex 0.0273733 0.0283836 -0.0307421
endloop
endfacet
facet normal 0.615983 0.773886 0.147191
outer loop
vertex 0.0240774 0.0435341 0.00500604
vertex 0.0365363 0.0327214 0.00971636
vertex 0.0334374 0.037168 -0.000693668
endloop
endfacet
facet normal -0.0356638 0.920279 0.389635
outer loop
vertex 0.00587677 0.0450541 0.0208708
vertex -0.0033162 0.0483844 0.0121635
vertex -0.00696255 0.0430014 0.0245438
endloop
endfacet
facet normal 0.0469285 0.989717 0.13512
outer loop
vertex -0.0033162 0.0483844 0.0121635
vertex 0.0101186 0.0483601 0.0076756
vertex 0.00099375 0.0499797 -0.00101873
endloop
endfacet
facet normal -0.370478 0.915844 0.154843
outer loop
vertex -0.0126292 0.0482864 0.00298738
vertex -0.0254573 0.042707 0.00529542
vertex -0.0166247 0.0445733 0.0153896
endloop
endfacet
facet normal -0.440743 0.807707 0.391606
outer loop
vertex -0.0288077 0.0373984 0.0164765
vertex -0.0195677 0.0375069 0.0266522
vertex -0.0166247 0.0445733 0.0153896
endloop
endfacet
facet normal -0.278979 0.586392 0.76047
outer loop
vertex -0.02116 0.0275962 0.0359264
vertex -0.0115769 0.0235579 0.0425559
vertex -0.00921639 0.0345592 0.0349388
endloop
endfacet
facet normal -0.0299394 0.681963 0.730774
outer loop
vertex 0.00360644 0.0381692 0.0320953
vertex -0.00921639 0.0345592 0.0349388
vertex 0.00122892 0.0283241 0.0411854
endloop
endfacet
facet normal 0.39164 0.66248 0.638544
outer loop
vertex 0.0165487 0.0386165 0.0271092
vertex 0.0139426 0.0307023 0.0369185
vertex 0.0265929 0.0305092 0.02936
endloop
endfacet
facet normal 0.224207 0.728496 0.647321
outer loop
vertex 0.00360644 0.0381692 0.0320953
vertex 0.0139426 0.0307023 0.0369185
vertex 0.0165487 0.0386165 0.0271092
endloop
endfacet
facet normal -0.83722 -0.147453 0.526613
outer loop
vertex -0.0391965 -0.0144001 0.0275004
vertex -0.0386573 -0.00289548 0.0315789
vertex -0.0454624 -0.00685591 0.0196511
endloop
endfacet
facet normal -0.485873 0.414615 0.76943
outer loop
vertex -0.02116 0.0275962 0.0359264
vertex -0.03077 0.0201449 0.0338731
vertex -0.0238362 0.0135197 0.0418217
endloop
endfacet
facet normal -0.287785 -0.277313 0.916666
outer loop
vertex -0.0131283 -0.0210615 0.0434058
vertex -0.00875907 -0.00925721 0.0483486
vertex -0.0213769 -0.0114083 0.0437365
endloop
endfacet
facet normal 0.164007 -0.677767 0.716752
outer loop
vertex 0.00899692 -0.0277526 0.040606
vertex 0.00116563 -0.0367018 0.0339355
vertex 0.0143166 -0.0360894 0.0315054
endloop
endfacet
facet normal -0.971807 0.18109 0.150986
outer loop
vertex -0.0460922 0.0141232 0.0132681
vertex -0.0490374 0.00975375 -0.000447484
vertex -0.0489523 0.00143228 0.0100806
endloop
endfacet
facet normal -0.972704 -0.10795 -0.205413
outer loop
vertex -0.0461935 -0.0109747 -0.0156753
vertex -0.0497535 -0.00441042 -0.00226738
vertex -0.0484179 0.00250254 -0.0122248
endloop
endfacet
facet normal -0.733833 0.502309 0.457356
outer loop
vertex -0.0392672 0.0267508 0.0155718
vertex -0.0395949 0.0179845 0.0246739
vertex -0.0308986 0.0295349 0.0259416
endloop
endfacet
facet normal -0.527128 0.707236 0.471118
outer loop
vertex -0.0308986 0.0295349 0.0259416
vertex -0.0195677 0.0375069 0.0266522
vertex -0.0288077 0.0373984 0.0164765
endloop
endfacet
facet normal 0.990349 -0.10993 -0.0844031
outer loop
vertex 0.0481684 -0.00627583 -0.01185
vertex 0.0499854 0.00118225 -0.000243094
vertex 0.0485899 -0.0117878 0.000274502
endloop
endfacet
facet normal 0.545978 -0.404698 0.733571
outer loop
vertex 0.0215629 -0.0255542 0.0371756
vertex 0.0329563 -0.0208546 0.0312884
vertex 0.0262827 -0.0133954 0.0403706
endloop
endfacet
facet normal 0.909023 -0.153145 0.387588
outer loop
vertex 0.0445344 -0.00043013 0.0227267
vertex 0.0421089 -0.0139358 0.0230788
vertex 0.0481453 -0.00623878 0.0119628
endloop
endfacet
facet normal 0.624739 -0.155774 0.765137
outer loop
vertex 0.0290189 -0.000752547 0.0407104
vertex 0.0262827 -0.0133954 0.0403706
vertex 0.0368592 -0.0077356 0.032887
endloop
endfacet
facet normal 0.0460637 -0.936029 0.348896
outer loop
vertex 0.00490251 -0.0435978 0.0239832
vertex -0.00517936 -0.0472375 0.0155497
vertex 0.00764503 -0.0479395 0.0119731
endloop
endfacet
facet normal 0.75195 -0.295511 0.589274
outer loop
vertex 0.0368592 -0.0077356 0.032887
vertex 0.0329563 -0.0208546 0.0312884
vertex 0.0421089 -0.0139358 0.0230788
endloop
endfacet
facet normal 0.621794 0.636281 0.456639
outer loop
vertex 0.0265929 0.0305092 0.02936
vertex 0.0368677 0.02662 0.0207882
vertex 0.0281323 0.0373157 0.0177797
endloop
endfacet
facet normal 0.47764 0.728205 0.491505
outer loop
vertex 0.0265929 0.0305092 0.02936
vertex 0.0281323 0.0373157 0.0177797
vertex 0.0165487 0.0386165 0.0271092
endloop
endfacet
facet normal 0.489258 0.835161 0.251262
outer loop
vertex 0.017818 0.0438996 0.0159794
vertex 0.0281323 0.0373157 0.0177797
vertex 0.0240774 0.0435341 0.00500604
endloop
endfacet
facet normal 0.760119 0.643837 -0.0877111
outer loop
vertex 0.0334374 0.037168 -0.000693668
vertex 0.0422416 0.0267332 -0.000990649
vertex 0.0363538 0.0321976 -0.0119044
endloop
endfacet
facet normal 0.223986 -0.882869 -0.412761
outer loop
vertex 0.0039522 -0.0437657 -0.0238526
vertex 0.0187475 -0.0417352 -0.020167
vertex 0.0103709 -0.047068 -0.0133061
endloop
endfacet
facet normal 0.478974 -0.877705 0.0147815
outer loop
vertex 0.0210086 -0.0449235 -0.00636505
vertex 0.030444 -0.0396505 0.00100147
vertex 0.0199772 -0.0452569 0.00726104
endloop
endfacet
facet normal 0.512073 -0.760285 -0.399686
outer loop
vertex 0.0297131 -0.0379324 -0.0133517
vertex 0.0187475 -0.0417352 -0.020167
vertex 0.0272153 -0.0330698 -0.0258015
endloop
endfacet
facet normal 0.461295 -0.844925 -0.270758
outer loop
vertex 0.0210086 -0.0449235 -0.00636505
vertex 0.0187475 -0.0417352 -0.020167
vertex 0.0297131 -0.0379324 -0.0133517
endloop
endfacet
facet normal 0.534007 0.445404 -0.718645
outer loop
vertex 0.0327959 0.0177046 -0.0333314
vertex 0.0195898 0.0237462 -0.0394
vertex 0.0273733 0.0283836 -0.0307421
endloop
endfacet
facet normal 0.442942 0.330905 -0.833249
outer loop
vertex 0.0195898 0.0237462 -0.0394
vertex 0.0268052 0.0101152 -0.0409776
vertex 0.0162811 0.0127711 -0.0455173
endloop
endfacet
facet normal 0.754956 0.245067 -0.608263
outer loop
vertex 0.0420431 0.0129024 -0.0237888
vertex 0.0369159 0.00494648 -0.0333579
vertex 0.0327959 0.0177046 -0.0333314
endloop
endfacet
facet normal 0.947514 0.00700163 -0.319639
outer loop
vertex 0.0481684 -0.00627583 -0.01185
vertex 0.0443093 -0.000454471 -0.0231621
vertex 0.0478672 0.00733933 -0.0124446
endloop
endfacet
facet normal 0.984492 0.158814 0.0745276
outer loop
vertex 0.0480831 0.00746225 0.0115033
vertex 0.0499854 0.00118225 -0.000243094
vertex 0.0478813 0.0143886 -0.000590134
endloop
endfacet
facet normal 0.943645 0.28397 -0.169988
outer loop
vertex 0.043968 0.0202947 -0.0124473
vertex 0.0478813 0.0143886 -0.000590134
vertex 0.0478672 0.00733933 -0.0124446
endloop
endfacet
facet normal 0.766467 -0.303826 -0.565878
outer loop
vertex 0.0376372 -0.0082297 -0.0318703
vertex 0.0426623 -0.0142989 -0.0218053
vertex 0.0342276 -0.0218366 -0.0291827
endloop
endfacet
facet normal 0.803464 -0.0231828 -0.594902
outer loop
vertex 0.0369159 0.00494648 -0.0333579
vertex 0.0443093 -0.000454471 -0.0231621
vertex 0.0376372 -0.0082297 -0.0318703
endloop
endfacet
facet normal -0.0214829 -0.147184 -0.988876
outer loop
vertex -0.00511604 -0.0139887 -0.0477299
vertex -0.00525596 -0.000601939 -0.0497193
vertex 0.00683727 -0.00665021 -0.0490818
endloop
endfacet
facet normal -0.470974 0.083762 -0.878161
outer loop
vertex -0.016506 0.00601907 -0.0468116
vertex -0.0255959 -0.00329648 -0.042825
vertex -0.0295051 0.00710402 -0.0397364
endloop
endfacet
facet normal -0.0299546 0.405248 -0.913716
outer loop
vertex -0.00366607 0.0127431 -0.0482097
vertex -0.00416408 0.0270324 -0.0418558
vertex 0.0066903 0.0206522 -0.0450414
endloop
endfacet
facet normal -0.262993 0.683777 -0.680649
outer loop
vertex -0.0174067 0.0375167 -0.0280981
vertex -0.00544908 0.0364386 -0.0338014
vertex -0.0180292 0.0285042 -0.0369115
endloop
endfacet
facet normal -0.35814 0.447655 -0.819354
outer loop
vertex -0.0124019 0.0190699 -0.0445257
vertex -0.0226918 0.0168184 -0.041258
vertex -0.0180292 0.0285042 -0.0369115
endloop
endfacet
facet normal -0.34414 0.265944 -0.900467
outer loop
vertex -0.016506 0.00601907 -0.0468116
vertex -0.0226918 0.0168184 -0.041258
vertex -0.0124019 0.0190699 -0.0445257
endloop
endfacet
facet normal -0.226882 0.236816 -0.944692
outer loop
vertex -0.0124019 0.0190699 -0.0445257
vertex -0.00366607 0.0127431 -0.0482097
vertex -0.016506 0.00601907 -0.0468116
endloop
endfacet
facet normal 0.22461 -0.252344 -0.941208
outer loop
vertex 0.00638066 -0.0184812 -0.0460188
vertex 0.00683727 -0.00665021 -0.0490818
vertex 0.0182001 -0.0143145 -0.0443153
endloop
endfacet
facet normal 0.910857 -0.146184 -0.385966
outer loop
vertex 0.0481684 -0.00627583 -0.01185
vertex 0.0426623 -0.0142989 -0.0218053
vertex 0.0443093 -0.000454471 -0.0231621
endloop
endfacet
facet normal 0.83512 -0.419669 -0.355602
outer loop
vertex 0.0426623 -0.0142989 -0.0218053
vertex 0.0447765 -0.0195205 -0.0106777
vertex 0.0374728 -0.0275426 -0.0183628
endloop
endfacet
facet normal 0.428047 -0.650674 -0.627215
outer loop
vertex 0.0144489 -0.0365823 -0.0308701
vertex 0.0226743 -0.0261345 -0.0360952
vertex 0.0272153 -0.0330698 -0.0258015
endloop
endfacet
facet normal 0.271215 -0.414116 -0.868879
outer loop
vertex 0.0182001 -0.0143145 -0.0443153
vertex 0.011113 -0.027544 -0.0402222
vertex 0.00638066 -0.0184812 -0.0460188
endloop
endfacet
facet normal -0.286508 -0.73253 -0.617506
outer loop
vertex -0.0134285 -0.0315349 -0.0364036
vertex -0.00772916 -0.0399 -0.0291247
vertex -0.0205729 -0.0369899 -0.0266177
endloop
endfacet
facet normal -0.123666 -0.698005 -0.705333
outer loop
vertex 0.00186227 -0.0355057 -0.0351551
vertex -0.00772916 -0.0399 -0.0291247
vertex -0.0134285 -0.0315349 -0.0364036
endloop
endfacet
facet normal -0.0194287 -0.398898 -0.91679
outer loop
vertex 0.00638066 -0.0184812 -0.0460188
vertex -0.0033561 -0.026197 -0.0424553
vertex -0.00511604 -0.0139887 -0.0477299
endloop
endfacet
facet normal 0.348852 -0.442484 -0.826141
outer loop
vertex 0.0226743 -0.0261345 -0.0360952
vertex 0.011113 -0.027544 -0.0402222
vertex 0.0182001 -0.0143145 -0.0443153
endloop
endfacet
facet normal -0.729375 -0.678661 -0.0862019
outer loop
vertex -0.0410296 -0.027985 -0.00578038
vertex -0.0333328 -0.0355842 -0.0110764
vertex -0.0351429 -0.0354345 0.00306085
endloop
endfacet
facet normal -0.657044 -0.489387 -0.573405
outer loop
vertex -0.032059 -0.030704 -0.0230106
vertex -0.0373982 -0.0173473 -0.0282921
vertex -0.0261687 -0.0262995 -0.0335192
endloop
endfacet
facet normal -0.176316 -0.954831 -0.239188
outer loop
vertex -0.00136843 -0.0488185 -0.0107181
vertex -0.0139749 -0.0475862 -0.00634473
vertex -0.0105216 -0.0450789 -0.0188995
endloop
endfacet
facet normal 0.255248 -0.959151 0.121971
outer loop
vertex 0.00764503 -0.0479395 0.0119731
vertex 0.00931434 -0.0491184 -0.000790671
vertex 0.0199772 -0.0452569 0.00726104
endloop
endfacet
facet normal -0.88551 -0.464292 -0.0174689
outer loop
vertex -0.0427972 -0.025069 0.00632001
vertex -0.0467828 -0.0170602 -0.00450753
vertex -0.0410296 -0.027985 -0.00578038
endloop
endfacet
facet normal -0.925795 -0.372328 0.065383
outer loop
vertex -0.0477534 -0.0124414 0.00805122
vertex -0.0467828 -0.0170602 -0.00450753
vertex -0.0427972 -0.025069 0.00632001
endloop
endfacet
facet normal -0.665528 0.243937 -0.705385
outer loop
vertex -0.0382525 0.00783208 -0.0312315
vertex -0.0312345 0.0195322 -0.0338068
vertex -0.0295051 0.00710402 -0.0397364
endloop
endfacet
facet normal -0.693882 0.0525803 -0.718166
outer loop
vertex -0.0355567 -0.00509072 -0.0347823
vertex -0.0382525 0.00783208 -0.0312315
vertex -0.0295051 0.00710402 -0.0397364
endloop
endfacet
facet normal 0.171969 0.893995 -0.413764
outer loop
vertex 0.0162397 0.0434603 -0.0186407
vertex 0.00604294 0.0413277 -0.0274864
vertex 0.00452436 0.0476498 -0.0144579
endloop
endfacet
facet normal -0.0652222 0.945508 -0.318999
outer loop
vertex 0.00452436 0.0476498 -0.0144579
vertex -0.00543653 0.0441154 -0.022897
vertex -0.00803733 0.0483851 -0.00971005
endloop
endfacet
facet normal -0.659278 0.703937 -0.264244
outer loop
vertex -0.0369414 0.0293449 -0.0165594
vertex -0.0321688 0.0378229 -0.0058814
vertex -0.0272362 0.0379829 -0.017762
endloop
endfacet
facet normal -0.738075 0.673871 -0.0338139
outer loop
vertex -0.0321688 0.0378229 -0.0058814
vertex -0.0408623 0.0283332 -0.00524437
vertex -0.0362846 0.0339028 0.00583299
endloop
endfacet
facet normal -0.818982 0.571543 0.0510713
outer loop
vertex -0.0408623 0.0283332 -0.00524437
vertex -0.0447952 0.0218942 0.00374561
vertex -0.0362846 0.0339028 0.00583299
endloop
endfacet
facet normal -0.835559 0.491448 -0.2456
outer loop
vertex -0.0455036 0.0175806 -0.01097
vertex -0.0408623 0.0283332 -0.00524437
vertex -0.0369414 0.0293449 -0.0165594
endloop
endfacet
facet normal -0.534682 -0.579843 0.614733
outer loop
vertex -0.0331232 -0.0251995 0.0277099
vertex -0.0245348 -0.0350183 0.0259184
vertex -0.0238983 -0.0242931 0.0365885
endloop
endfacet
facet normal 0.307967 -0.466209 0.82934
outer loop
vertex 0.0140737 -0.0164716 0.0450624
vertex 0.00899692 -0.0277526 0.040606
vertex 0.0215629 -0.0255542 0.0371756
endloop
endfacet
facet normal -0.0511782 -0.0933044 0.994321
outer loop
vertex -0.00427609 0.00298001 0.0497276
vertex -0.00875907 -0.00925721 0.0483486
vertex 0.00501876 -0.00661684 0.0493055
endloop
endfacet
facet normal -0.211917 -0.0324393 0.976749
outer loop
vertex -0.01774 0.000920216 0.046738
vertex -0.00875907 -0.00925721 0.0483486
vertex -0.00427609 0.00298001 0.0497276
endloop
endfacet
facet normal -0.799972 -0.599403 0.0275854
outer loop
vertex -0.0410296 -0.027985 -0.00578038
vertex -0.0351429 -0.0354345 0.00306085
vertex -0.0427972 -0.025069 0.00632001
endloop
endfacet
facet normal -0.660122 -0.721696 0.208312
outer loop
vertex -0.0351429 -0.0354345 0.00306085
vertex -0.0268616 -0.0404581 0.0118992
vertex -0.0350315 -0.0316898 0.0163875
endloop
endfacet
facet normal -0.168551 -0.970874 0.170274
outer loop
vertex -0.00336059 -0.0498169 0.00264281
vertex -0.00517936 -0.0472375 0.0155497
vertex -0.0159034 -0.0469263 0.00670843
endloop
endfacet
facet normal 0.00101357 -0.980582 0.196108
outer loop
vertex 0.00764503 -0.0479395 0.0119731
vertex -0.00517936 -0.0472375 0.0155497
vertex -0.00336059 -0.0498169 0.00264281
endloop
endfacet
facet normal 0.211501 -0.902727 0.374635
outer loop
vertex 0.00764503 -0.0479395 0.0119731
vertex 0.0177224 -0.0421605 0.0202091
vertex 0.00490251 -0.0435978 0.0239832
endloop
endfacet
facet normal 0.302395 -0.913793 0.271184
outer loop
vertex 0.0199772 -0.0452569 0.00726104
vertex 0.0177224 -0.0421605 0.0202091
vertex 0.00764503 -0.0479395 0.0119731
endloop
endfacet
facet normal 0.0165747 0.178215 0.983852
outer loop
vertex 0.00827685 0.00647161 0.0488837
vertex -0.000648463 0.0163628 0.0472423
vertex -0.00427609 0.00298001 0.0497276
endloop
endfacet
facet normal 0.136851 0.281107 0.949869
outer loop
vertex 0.011458 0.019657 0.0445232
vertex -0.000648463 0.0163628 0.0472423
vertex 0.00827685 0.00647161 0.0488837
endloop
endfacet
facet normal 0.521119 0.120141 0.844986
outer loop
vertex 0.0298317 0.0113407 0.0384897
vertex 0.0198357 0.00930681 0.0449436
vertex 0.0290189 -0.000752547 0.0407104
endloop
endfacet
facet normal 0.212669 -0.0214562 0.976889
outer loop
vertex 0.00501876 -0.00661684 0.0493055
vertex 0.0176967 -0.0038254 0.0466068
vertex 0.00827685 0.00647161 0.0488837
endloop
endfacet
facet normal 0.484278 0.685046 -0.544231
outer loop
vertex 0.0273733 0.0283836 -0.0307421
vertex 0.0174847 0.0357467 -0.030273
vertex 0.0275233 0.0362319 -0.0207295
endloop
endfacet
facet normal 0.411379 0.596384 -0.68927
outer loop
vertex 0.0195898 0.0237462 -0.0394
vertex 0.0174847 0.0357467 -0.030273
vertex 0.0273733 0.0283836 -0.0307421
endloop
endfacet
facet normal 0.350818 0.920988 0.169434
outer loop
vertex 0.0240774 0.0435341 0.00500604
vertex 0.0101186 0.0483601 0.0076756
vertex 0.017818 0.0438996 0.0159794
endloop
endfacet
facet normal 0.336324 0.939863 0.0595236
outer loop
vertex 0.0143881 0.0476306 -0.00493005
vertex 0.0101186 0.0483601 0.0076756
vertex 0.0240774 0.0435341 0.00500604
endloop
endfacet
facet normal -0.61518 0.767545 0.180076
outer loop
vertex -0.0288077 0.0373984 0.0164765
vertex -0.0254573 0.042707 0.00529542
vertex -0.0362846 0.0339028 0.00583299
endloop
endfacet
facet normal -0.473052 0.842356 0.258183
outer loop
vertex -0.0166247 0.0445733 0.0153896
vertex -0.0254573 0.042707 0.00529542
vertex -0.0288077 0.0373984 0.0164765
endloop
endfacet
facet normal -0.076523 0.45997 0.884631
outer loop
vertex 0.00122892 0.0283241 0.0411854
vertex -0.0115769 0.0235579 0.0425559
vertex -0.000648463 0.0163628 0.0472423
endloop
endfacet
facet normal -0.131272 0.583208 0.801646
outer loop
vertex -0.00921639 0.0345592 0.0349388
vertex -0.0115769 0.0235579 0.0425559
vertex 0.00122892 0.0283241 0.0411854
endloop
endfacet
facet normal 0.570968 0.479175 0.666623
outer loop
vertex 0.0231035 0.0217714 0.0386294
vertex 0.0344202 0.0193986 0.0306422
vertex 0.0265929 0.0305092 0.02936
endloop
endfacet
facet normal 0.427067 0.5722 0.700144
outer loop
vertex 0.0139426 0.0307023 0.0369185
vertex 0.0231035 0.0217714 0.0386294
vertex 0.0265929 0.0305092 0.02936
endloop
endfacet
facet normal -0.333046 -0.532142 0.778399
outer loop
vertex -0.0131283 -0.0210615 0.0434058
vertex -0.0238983 -0.0242931 0.0365885
vertex -0.0144587 -0.0329781 0.0346899
endloop
endfacet
facet normal -0.410864 -0.379478 0.828968
outer loop
vertex -0.0213769 -0.0114083 0.0437365
vertex -0.0238983 -0.0242931 0.0365885
vertex -0.0131283 -0.0210615 0.0434058
endloop
endfacet
facet normal -0.803512 0.213822 0.555562
outer loop
vertex -0.0395949 0.0179845 0.0246739
vertex -0.0440318 0.00563557 0.0230095
vertex -0.0355422 0.00897423 0.0340032
endloop
endfacet
facet normal -0.961559 -0.119274 0.247344
outer loop
vertex -0.0477534 -0.0124414 0.00805122
vertex -0.0454624 -0.00685591 0.0196511
vertex -0.0489523 0.00143228 0.0100806
endloop
endfacet
facet normal -0.767395 -0.422201 0.482547
outer loop
vertex -0.0331232 -0.0251995 0.0277099
vertex -0.0391965 -0.0144001 0.0275004
vertex -0.0421174 -0.0204003 0.0176055
endloop
endfacet
facet normal -0.665811 -0.11093 0.737828
outer loop
vertex -0.0289794 -1.36606e-05 0.0407455
vertex -0.0386573 -0.00289548 0.0315789
vertex -0.031299 -0.0132945 0.0366555
endloop
endfacet
facet normal 0.951388 -0.262641 0.160873
outer loop
vertex 0.0445291 -0.0192257 0.0121463
vertex 0.0485899 -0.0117878 0.000274502
vertex 0.0481453 -0.00623878 0.0119628
endloop
endfacet
facet normal 0.93172 -0.349156 0.0999423
outer loop
vertex 0.0441699 -0.0234154 0.000857406
vertex 0.0485899 -0.0117878 0.000274502
vertex 0.0445291 -0.0192257 0.0121463
endloop
endfacet
facet normal 0.835103 -0.136079 0.532997
outer loop
vertex 0.0445344 -0.00043013 0.0227267
vertex 0.0368592 -0.0077356 0.032887
vertex 0.0421089 -0.0139358 0.0230788
endloop
endfacet
facet normal 0.80859 -0.0324525 0.587477
outer loop
vertex 0.0382132 0.00557854 0.031759
vertex 0.0368592 -0.0077356 0.032887
vertex 0.0445344 -0.00043013 0.0227267
endloop
endfacet
facet normal 0.653512 -0.739963 0.159302
outer loop
vertex 0.0290675 -0.037896 0.0147976
vertex 0.030444 -0.0396505 0.00100147
vertex 0.0380584 -0.0313859 0.00815378
endloop
endfacet
facet normal 0.538354 -0.827592 0.158957
outer loop
vertex 0.0199772 -0.0452569 0.00726104
vertex 0.030444 -0.0396505 0.00100147
vertex 0.0290675 -0.037896 0.0147976
endloop
endfacet
facet normal 0.946553 0.286451 0.148264
outer loop
vertex 0.0441391 0.0208415 0.0108337
vertex 0.0480831 0.00746225 0.0115033
vertex 0.0478813 0.0143886 -0.000590134
endloop
endfacet
facet normal 0.912561 0.283749 0.294481
outer loop
vertex 0.042775 0.0136234 0.0220159
vertex 0.0480831 0.00746225 0.0115033
vertex 0.0441391 0.0208415 0.0108337
endloop
endfacet
facet normal 0.586385 0.368578 0.721321
outer loop
vertex 0.0298317 0.0113407 0.0384897
vertex 0.0344202 0.0193986 0.0306422
vertex 0.0231035 0.0217714 0.0386294
endloop
endfacet
facet normal 0.704304 0.247079 0.665513
outer loop
vertex 0.0382132 0.00557854 0.031759
vertex 0.0344202 0.0193986 0.0306422
vertex 0.0298317 0.0113407 0.0384897
endloop
endfacet
facet normal 0.638529 0.751266 -0.166971
outer loop
vertex 0.0334374 0.037168 -0.000693668
vertex 0.0363538 0.0321976 -0.0119044
vertex 0.0255454 0.0420094 -0.00909086
endloop
endfacet
facet normal 0.825421 0.536088 -0.17689
outer loop
vertex 0.0363538 0.0321976 -0.0119044
vertex 0.0422416 0.0267332 -0.000990649
vertex 0.043968 0.0202947 -0.0124473
endloop
endfacet
facet normal 0.832751 0.413309 0.368377
outer loop
vertex 0.0441391 0.0208415 0.0108337
vertex 0.0368677 0.02662 0.0207882
vertex 0.042775 0.0136234 0.0220159
endloop
endfacet
facet normal 0.602854 0.775796 0.186302
outer loop
vertex 0.0281323 0.0373157 0.0177797
vertex 0.0365363 0.0327214 0.00971636
vertex 0.0240774 0.0435341 0.00500604
endloop
endfacet
facet normal 0.4901 0.0599728 -0.8696
outer loop
vertex 0.0181659 -0.000522859 -0.0465803
vertex 0.0268052 0.0101152 -0.0409776
vertex 0.028761 -0.00306926 -0.0407846
endloop
endfacet
facet normal 0.420421 0.131394 -0.897765
outer loop
vertex 0.0162811 0.0127711 -0.0455173
vertex 0.0268052 0.0101152 -0.0409776
vertex 0.0181659 -0.000522859 -0.0465803
endloop
endfacet
facet normal -0.602679 -0.159253 -0.781932
outer loop
vertex -0.0255959 -0.00329648 -0.042825
vertex -0.0277581 -0.0150697 -0.0387607
vertex -0.0355567 -0.00509072 -0.0347823
endloop
endfacet
facet normal -0.455357 -0.214655 -0.864045
outer loop
vertex -0.016019 -0.00826511 -0.0466377
vertex -0.0277581 -0.0150697 -0.0387607
vertex -0.0255959 -0.00329648 -0.042825
endloop
endfacet
facet normal -0.0931563 0.401823 -0.910967
outer loop
vertex -0.0124019 0.0190699 -0.0445257
vertex -0.00416408 0.0270324 -0.0418558
vertex -0.00366607 0.0127431 -0.0482097
endloop
endfacet
facet normal -0.0203166 0.114775 -0.993184
outer loop
vertex 0.00658102 0.00622602 -0.0491724
vertex -0.00525596 -0.000601939 -0.0497193
vertex -0.00366607 0.0127431 -0.0482097
endloop
endfacet
facet normal -0.00764502 0.984933 -0.172769
outer loop
vertex 0.00099375 0.0499797 -0.00101873
vertex 0.00452436 0.0476498 -0.0144579
vertex -0.00803733 0.0483851 -0.00971005
endloop
endfacet
facet normal 0.132669 0.981872 -0.135376
outer loop
vertex 0.0143881 0.0476306 -0.00493005
vertex 0.00452436 0.0476498 -0.0144579
vertex 0.00099375 0.0499797 -0.00101873
endloop
endfacet
facet normal -0.237253 0.520483 -0.820249
outer loop
vertex -0.0180292 0.0285042 -0.0369115
vertex -0.00416408 0.0270324 -0.0418558
vertex -0.0124019 0.0190699 -0.0445257
endloop
endfacet
facet normal -0.204149 0.620479 -0.757185
outer loop
vertex -0.00544908 0.0364386 -0.0338014
vertex -0.00416408 0.0270324 -0.0418558
vertex -0.0180292 0.0285042 -0.0369115
endloop
endfacet
facet normal -0.63135 0.650589 -0.422056
outer loop
vertex -0.0272362 0.0379829 -0.017762
vertex -0.0287816 0.0299517 -0.0278301
vertex -0.0369414 0.0293449 -0.0165594
endloop
endfacet
facet normal -0.488622 0.717094 -0.497015
outer loop
vertex -0.0174067 0.0375167 -0.0280981
vertex -0.0287816 0.0299517 -0.0278301
vertex -0.0272362 0.0379829 -0.017762
endloop
endfacet
facet normal 0.931136 -0.357541 -0.0717625
outer loop
vertex 0.0441699 -0.0234154 0.000857406
vertex 0.0447765 -0.0195205 -0.0106777
vertex 0.0485899 -0.0117878 0.000274502
endloop
endfacet
facet normal 0.852016 -0.50795 -0.126709
outer loop
vertex 0.0382451 -0.0316454 -0.00599035
vertex 0.0447765 -0.0195205 -0.0106777
vertex 0.0441699 -0.0234154 0.000857406
endloop
endfacet
facet normal 0.330193 -0.617146 -0.714215
outer loop
vertex 0.0144489 -0.0365823 -0.0308701
vertex 0.011113 -0.027544 -0.0402222
vertex 0.0226743 -0.0261345 -0.0360952
endloop
endfacet
facet normal 0.186347 -0.672422 -0.716327
outer loop
vertex 0.00186227 -0.0355057 -0.0351551
vertex 0.011113 -0.027544 -0.0402222
vertex 0.0144489 -0.0365823 -0.0308701
endloop
endfacet
facet normal 0.688624 -0.302697 -0.658917
outer loop
vertex 0.0342276 -0.0218366 -0.0291827
vertex 0.0286843 -0.0151373 -0.0380536
vertex 0.0376372 -0.0082297 -0.0318703
endloop
endfacet
facet normal 0.57593 -0.437701 -0.690451
outer loop
vertex 0.0226743 -0.0261345 -0.0360952
vertex 0.0286843 -0.0151373 -0.0380536
vertex 0.0342276 -0.0218366 -0.0291827
endloop
endfacet
facet normal -0.876658 -0.438637 -0.197656
outer loop
vertex -0.0467828 -0.0170602 -0.00450753
vertex -0.0409722 -0.0230016 -0.0170939
vertex -0.0410296 -0.027985 -0.00578038
endloop
endfacet
facet normal -0.787763 -0.19163 -0.585413
outer loop
vertex -0.0373982 -0.0173473 -0.0282921
vertex -0.0431766 -0.00394125 -0.0249048
vertex -0.0355567 -0.00509072 -0.0347823
endloop
endfacet
facet normal -0.579291 -0.730951 -0.360739
outer loop
vertex -0.0230866 -0.0416522 -0.0152348
vertex -0.0333328 -0.0355842 -0.0110764
vertex -0.032059 -0.030704 -0.0230106
endloop
endfacet
facet normal -0.554546 -0.812175 -0.181246
outer loop
vertex -0.0256669 -0.0428675 -0.00189455
vertex -0.0333328 -0.0355842 -0.0110764
vertex -0.0230866 -0.0416522 -0.0152348
endloop
endfacet
facet normal -0.966981 -0.198859 -0.159386
outer loop
vertex -0.0467828 -0.0170602 -0.00450753
vertex -0.0497535 -0.00441042 -0.00226738
vertex -0.0461935 -0.0109747 -0.0156753
endloop
endfacet
facet normal -0.973099 -0.230195 0.00945341
outer loop
vertex -0.0477534 -0.0124414 0.00805122
vertex -0.0497535 -0.00441042 -0.00226738
vertex -0.0467828 -0.0170602 -0.00450753
endloop
endfacet
facet normal -0.511593 0.514968 -0.687809
outer loop
vertex -0.0180292 0.0285042 -0.0369115
vertex -0.0312345 0.0195322 -0.0338068
vertex -0.0287816 0.0299517 -0.0278301
endloop
endfacet
facet normal -0.491219 0.469001 -0.73399
outer loop
vertex -0.0226918 0.0168184 -0.041258
vertex -0.0312345 0.0195322 -0.0338068
vertex -0.0180292 0.0285042 -0.0369115
endloop
endfacet
facet normal -0.936275 0.346687 -0.056553
outer loop
vertex -0.0490374 0.00975375 -0.000447484
vertex -0.0447952 0.0218942 0.00374561
vertex -0.0455036 0.0175806 -0.01097
endloop
endfacet
facet normal -0.949517 0.293674 0.110333
outer loop
vertex -0.0460922 0.0141232 0.0132681
vertex -0.0447952 0.0218942 0.00374561
vertex -0.0490374 0.00975375 -0.000447484
endloop
endfacet
facet normal -0.993985 0.0618639 -0.090373
outer loop
vertex -0.0497535 -0.00441042 -0.00226738
vertex -0.0490374 0.00975375 -0.000447484
vertex -0.0484179 0.00250254 -0.0122248
endloop
endfacet
facet normal -0.998044 0.0448652 0.0435249
outer loop
vertex -0.0489523 0.00143228 0.0100806
vertex -0.0490374 0.00975375 -0.000447484
vertex -0.0497535 -0.00441042 -0.00226738
endloop
endfacet
facet normal 0.0527678 -0.626065 0.777983
outer loop
vertex -0.00409923 -0.028649 0.0407729
vertex 0.00116563 -0.0367018 0.0339355
vertex 0.00899692 -0.0277526 0.040606
endloop
endfacet
facet normal -0.129997 -0.689761 0.712272
outer loop
vertex -0.0144587 -0.0329781 0.0346899
vertex 0.00116563 -0.0367018 0.0339355
vertex -0.00409923 -0.028649 0.0407729
endloop
endfacet
facet normal -0.336381 -0.775314 0.534543
outer loop
vertex -0.00853084 -0.0410676 0.0272154
vertex -0.0245348 -0.0350183 0.0259184
vertex -0.0171843 -0.0428675 0.0191592
endloop
endfacet
facet normal -0.332485 -0.759835 0.558664
outer loop
vertex -0.0144587 -0.0329781 0.0346899
vertex -0.0245348 -0.0350183 0.0259184
vertex -0.00853084 -0.0410676 0.0272154
endloop
endfacet
facet normal -0.403758 -0.881245 0.245737
outer loop
vertex -0.0171843 -0.0428675 0.0191592
vertex -0.0268616 -0.0404581 0.0118992
vertex -0.0159034 -0.0469263 0.00670843
endloop
endfacet
facet normal -0.484513 -0.785418 0.385183
outer loop
vertex -0.0245348 -0.0350183 0.0259184
vertex -0.0268616 -0.0404581 0.0118992
vertex -0.0171843 -0.0428675 0.0191592
endloop
endfacet
facet normal 0.113073 -0.981994 -0.151338
outer loop
vertex 0.0103709 -0.047068 -0.0133061
vertex 0.00931434 -0.0491184 -0.000790671
vertex -0.00136843 -0.0488185 -0.0107181
endloop
endfacet
facet normal 0.278163 -0.951367 -0.132383
outer loop
vertex 0.0210086 -0.0449235 -0.00636505
vertex 0.00931434 -0.0491184 -0.000790671
vertex 0.0103709 -0.047068 -0.0133061
endloop
endfacet
facet normal -0.199411 -0.888743 0.412761
outer loop
vertex -0.0171843 -0.0428675 0.0191592
vertex -0.00517936 -0.0472375 0.0155497
vertex -0.00853084 -0.0410676 0.0272154
endloop
endfacet
facet normal -0.254421 -0.92688 0.275977
outer loop
vertex -0.0159034 -0.0469263 0.00670843
vertex -0.00517936 -0.0472375 0.0155497
vertex -0.0171843 -0.0428675 0.0191592
endloop
endfacet
facet normal 0.452266 -0.846404 0.281168
outer loop
vertex 0.0290675 -0.037896 0.0147976
vertex 0.0177224 -0.0421605 0.0202091
vertex 0.0199772 -0.0452569 0.00726104
endloop
endfacet
facet normal 0.643885 -0.546304 0.53569
outer loop
vertex 0.0329563 -0.0208546 0.0312884
vertex 0.0264853 -0.0327926 0.026892
vertex 0.0368307 -0.0269831 0.0203815
endloop
endfacet
facet normal 0.485245 -0.128266 0.864919
outer loop
vertex 0.0176967 -0.0038254 0.0466068
vertex 0.0262827 -0.0133954 0.0403706
vertex 0.0290189 -0.000752547 0.0407104
endloop
endfacet
facet normal 0.398096 -0.222729 0.889894
outer loop
vertex 0.0140737 -0.0164716 0.0450624
vertex 0.0262827 -0.0133954 0.0403706
vertex 0.0176967 -0.0038254 0.0466068
endloop
endfacet
facet normal 0.257908 0.246699 0.934143
outer loop
vertex 0.00827685 0.00647161 0.0488837
vertex 0.0198357 0.00930681 0.0449436
vertex 0.011458 0.019657 0.0445232
endloop
endfacet
facet normal 0.306342 0.0703328 0.94932
outer loop
vertex 0.0176967 -0.0038254 0.0466068
vertex 0.0198357 0.00930681 0.0449436
vertex 0.00827685 0.00647161 0.0488837
endloop
endfacet
facet normal 0.202048 0.736536 -0.645517
outer loop
vertex 0.00768336 0.0319089 -0.0377199
vertex 0.00604294 0.0413277 -0.0274864
vertex 0.0174847 0.0357467 -0.030273
endloop
endfacet
facet normal 0.0545626 0.739033 -0.671457
outer loop
vertex -0.00544908 0.0364386 -0.0338014
vertex 0.00604294 0.0413277 -0.0274864
vertex 0.00768336 0.0319089 -0.0377199
endloop
endfacet
facet normal -0.242279 0.778163 0.579451
outer loop
vertex -0.00696255 0.0430014 0.0245438
vertex -0.0195677 0.0375069 0.0266522
vertex -0.00921639 0.0345592 0.0349388
endloop
endfacet
facet normal -0.291644 0.842711 0.452529
outer loop
vertex -0.0166247 0.0445733 0.0153896
vertex -0.0195677 0.0375069 0.0266522
vertex -0.00696255 0.0430014 0.0245438
endloop
endfacet
facet normal -0.538687 0.841347 -0.044175
outer loop
vertex -0.0321688 0.0378229 -0.0058814
vertex -0.0254573 0.042707 0.00529542
vertex -0.0211908 0.0448198 -0.00649115
endloop
endfacet
facet normal -0.629263 0.77623 0.0386697
outer loop
vertex -0.0362846 0.0339028 0.00583299
vertex -0.0254573 0.042707 0.00529542
vertex -0.0321688 0.0378229 -0.0058814
endloop
endfacet
facet normal -0.680698 -0.370547 0.631938
outer loop
vertex -0.0331232 -0.0251995 0.0277099
vertex -0.031299 -0.0132945 0.0366555
vertex -0.0391965 -0.0144001 0.0275004
endloop
endfacet
facet normal -0.692672 0.0346489 0.72042
outer loop
vertex -0.0355422 0.00897423 0.0340032
vertex -0.0386573 -0.00289548 0.0315789
vertex -0.0289794 -1.36606e-05 0.0407455
endloop
endfacet
facet normal 0.413562 -0.378169 0.828224
outer loop
vertex 0.0215629 -0.0255542 0.0371756
vertex 0.0262827 -0.0133954 0.0403706
vertex 0.0140737 -0.0164716 0.0450624
endloop
endfacet
facet normal 0.402175 -0.750401 0.524551
outer loop
vertex 0.0177224 -0.0421605 0.0202091
vertex 0.0264853 -0.0327926 0.026892
vertex 0.0143166 -0.0360894 0.0315054
endloop
endfacet
facet normal 0.811017 -0.519736 0.268563
outer loop
vertex 0.0445291 -0.0192257 0.0121463
vertex 0.0368307 -0.0269831 0.0203815
vertex 0.0380584 -0.0313859 0.00815378
endloop
endfacet
facet normal 0.826144 -0.413367 0.382902
outer loop
vertex 0.0421089 -0.0139358 0.0230788
vertex 0.0368307 -0.0269831 0.0203815
vertex 0.0445291 -0.0192257 0.0121463
endloop
endfacet
facet normal 0.557407 -0.82053 -0.126605
outer loop
vertex 0.0297131 -0.0379324 -0.0133517
vertex 0.030444 -0.0396505 0.00100147
vertex 0.0210086 -0.0449235 -0.00636505
endloop
endfacet
facet normal 0.655123 -0.745508 -0.1226
outer loop
vertex 0.0382451 -0.0316454 -0.00599035
vertex 0.030444 -0.0396505 0.00100147
vertex 0.0297131 -0.0379324 -0.0133517
endloop
endfacet
facet normal 0.986378 0.0146654 -0.163841
outer loop
vertex 0.0478672 0.00733933 -0.0124446
vertex 0.0499854 0.00118225 -0.000243094
vertex 0.0481684 -0.00627583 -0.01185
endloop
endfacet
facet normal 0.983649 0.15428 -0.0929157
outer loop
vertex 0.0478813 0.0143886 -0.000590134
vertex 0.0499854 0.00118225 -0.000243094
vertex 0.0478672 0.00733933 -0.0124446
endloop
endfacet
facet normal 0.907067 0.416407 0.0619213
outer loop
vertex 0.0478813 0.0143886 -0.000590134
vertex 0.0422416 0.0267332 -0.000990649
vertex 0.0441391 0.0208415 0.0108337
endloop
endfacet
facet normal 0.906663 0.41115 -0.0944343
outer loop
vertex 0.043968 0.0202947 -0.0124473
vertex 0.0422416 0.0267332 -0.000990649
vertex 0.0478813 0.0143886 -0.000590134
endloop
endfacet
facet normal 0.828333 0.543059 0.137663
outer loop
vertex 0.0422416 0.0267332 -0.000990649
vertex 0.0365363 0.0327214 0.00971636
vertex 0.0441391 0.0208415 0.0108337
endloop
endfacet
facet normal 0.764103 0.643355 0.0473433
outer loop
vertex 0.0334374 0.037168 -0.000693668
vertex 0.0365363 0.0327214 0.00971636
vertex 0.0422416 0.0267332 -0.000990649
endloop
endfacet
facet normal -0.418649 -0.278414 -0.864418
outer loop
vertex -0.0162787 -0.0206769 -0.0425143
vertex -0.0277581 -0.0150697 -0.0387607
vertex -0.016019 -0.00826511 -0.0466377
endloop
endfacet
facet normal -0.380597 -0.0242246 -0.924424
outer loop
vertex -0.016506 0.00601907 -0.0468116
vertex -0.016019 -0.00826511 -0.0466377
vertex -0.0255959 -0.00329648 -0.042825
endloop
endfacet
facet normal -0.62915 -0.400092 -0.666406
outer loop
vertex -0.0373982 -0.0173473 -0.0282921
vertex -0.0277581 -0.0150697 -0.0387607
vertex -0.0261687 -0.0262995 -0.0335192
endloop
endfacet
facet normal -0.681513 -0.25986 -0.684115
outer loop
vertex -0.0355567 -0.00509072 -0.0347823
vertex -0.0277581 -0.0150697 -0.0387607
vertex -0.0373982 -0.0173473 -0.0282921
endloop
endfacet
facet normal 0.0840715 0.273729 -0.958126
outer loop
vertex 0.0066903 0.0206522 -0.0450414
vertex 0.00658102 0.00622602 -0.0491724
vertex -0.00366607 0.0127431 -0.0482097
endloop
endfacet
facet normal 0.174744 0.269833 -0.946919
outer loop
vertex 0.0162811 0.0127711 -0.0455173
vertex 0.00658102 0.00622602 -0.0491724
vertex 0.0066903 0.0206522 -0.0450414
endloop
endfacet
facet normal -0.8457 -0.316461 -0.429703
outer loop
vertex -0.0373982 -0.0173473 -0.0282921
vertex -0.0409722 -0.0230016 -0.0170939
vertex -0.0461935 -0.0109747 -0.0156753
endloop
endfacet
facet normal -0.7341 -0.482417 -0.477881
outer loop
vertex -0.032059 -0.030704 -0.0230106
vertex -0.0409722 -0.0230016 -0.0170939
vertex -0.0373982 -0.0173473 -0.0282921
endloop
endfacet
facet normal -0.848678 0.0734866 -0.523781
outer loop
vertex -0.0382525 0.00783208 -0.0312315
vertex -0.0431766 -0.00394125 -0.0249048
vertex -0.0445027 0.00900062 -0.0209404
endloop
endfacet
facet normal -0.791619 0.00274849 -0.611008
outer loop
vertex -0.0355567 -0.00509072 -0.0347823
vertex -0.0431766 -0.00394125 -0.0249048
vertex -0.0382525 0.00783208 -0.0312315
endloop
endfacet
facet normal -0.763483 -0.589595 -0.263575
outer loop
vertex -0.0409722 -0.0230016 -0.0170939
vertex -0.0333328 -0.0355842 -0.0110764
vertex -0.0410296 -0.027985 -0.00578038
endloop
endfacet
facet normal -0.732405 -0.599255 -0.323228
outer loop
vertex -0.032059 -0.030704 -0.0230106
vertex -0.0333328 -0.0355842 -0.0110764
vertex -0.0409722 -0.0230016 -0.0170939
endloop
endfacet
facet normal -0.872854 0.429507 0.231624
outer loop
vertex -0.0392672 0.0267508 0.0155718
vertex -0.0447952 0.0218942 0.00374561
vertex -0.0460922 0.0141232 0.0132681
endloop
endfacet
facet normal -0.818507 0.553057 0.155482
outer loop
vertex -0.0362846 0.0339028 0.00583299
vertex -0.0447952 0.0218942 0.00374561
vertex -0.0392672 0.0267508 0.0155718
endloop
endfacet
facet normal -0.113367 -0.443425 0.889113
outer loop
vertex -0.00409923 -0.028649 0.0407729
vertex 0.000642427 -0.0184206 0.0464787
vertex -0.0131283 -0.0210615 0.0434058
endloop
endfacet
facet normal -0.140358 -0.725445 0.673817
outer loop
vertex -0.00853084 -0.0410676 0.0272154
vertex 0.00116563 -0.0367018 0.0339355
vertex -0.0144587 -0.0329781 0.0346899
endloop
endfacet
facet normal -0.0196276 -0.825238 0.564444
outer loop
vertex 0.00490251 -0.0435978 0.0239832
vertex 0.00116563 -0.0367018 0.0339355
vertex -0.00853084 -0.0410676 0.0272154
endloop
endfacet
facet normal 0.147507 -0.78618 0.600136
outer loop
vertex 0.0143166 -0.0360894 0.0315054
vertex 0.00116563 -0.0367018 0.0339355
vertex 0.00490251 -0.0435978 0.0239832
endloop
endfacet
facet normal -0.585074 -0.805959 0.0901006
outer loop
vertex -0.0256669 -0.0428675 -0.00189455
vertex -0.0268616 -0.0404581 0.0118992
vertex -0.0351429 -0.0354345 0.00306085
endloop
endfacet
facet normal -0.46476 -0.878179 0.113136
outer loop
vertex -0.0159034 -0.0469263 0.00670843
vertex -0.0268616 -0.0404581 0.0118992
vertex -0.0256669 -0.0428675 -0.00189455
endloop
endfacet
facet normal 0.140725 -0.27962 0.949742
outer loop
vertex 0.00501876 -0.00661684 0.0493055
vertex 0.000642427 -0.0184206 0.0464787
vertex 0.0140737 -0.0164716 0.0450624
endloop
endfacet
facet normal -0.0247079 -0.224152 0.974241
outer loop
vertex -0.00875907 -0.00925721 0.0483486
vertex 0.000642427 -0.0184206 0.0464787
vertex 0.00501876 -0.00661684 0.0493055
endloop
endfacet
facet normal -0.0315451 0.817298 -0.575351
outer loop
vertex -0.00544908 0.0364386 -0.0338014
vertex -0.00543653 0.0441154 -0.022897
vertex 0.00604294 0.0413277 -0.0274864
endloop
endfacet
facet normal -0.196834 0.801798 -0.564248
outer loop
vertex -0.0174067 0.0375167 -0.0280981
vertex -0.00543653 0.0441154 -0.022897
vertex -0.00544908 0.0364386 -0.0338014
endloop
endfacet
facet normal -0.55417 -0.155068 0.817832
outer loop
vertex -0.0289794 -1.36606e-05 0.0407455
vertex -0.031299 -0.0132945 0.0366555
vertex -0.0213769 -0.0114083 0.0437365
endloop
endfacet
facet normal -0.463997 -0.0779561 0.8824
outer loop
vertex -0.01774 0.000920216 0.046738
vertex -0.0289794 -1.36606e-05 0.0407455
vertex -0.0213769 -0.0114083 0.0437365
endloop
endfacet
facet normal 0.489183 -0.761251 0.425671
outer loop
vertex 0.0290675 -0.037896 0.0147976
vertex 0.0264853 -0.0327926 0.026892
vertex 0.0177224 -0.0421605 0.0202091
endloop
endfacet
facet normal 0.760974 -0.411533 0.501556
outer loop
vertex 0.0421089 -0.0139358 0.0230788
vertex 0.0329563 -0.0208546 0.0312884
vertex 0.0368307 -0.0269831 0.0203815
endloop
endfacet
facet normal 0.551424 -0.534718 0.64032
outer loop
vertex 0.0215629 -0.0255542 0.0371756
vertex 0.0264853 -0.0327926 0.026892
vertex 0.0329563 -0.0208546 0.0312884
endloop
endfacet
facet normal 0.418156 -0.636449 0.648135
outer loop
vertex 0.0143166 -0.0360894 0.0315054
vertex 0.0264853 -0.0327926 0.026892
vertex 0.0215629 -0.0255542 0.0371756
endloop
endfacet
facet normal 0.653839 0.523654 0.546151
outer loop
vertex 0.0344202 0.0193986 0.0306422
vertex 0.0368677 0.02662 0.0207882
vertex 0.0265929 0.0305092 0.02936
endloop
endfacet
facet normal 0.777557 0.399309 0.485755
outer loop
vertex 0.042775 0.0136234 0.0220159
vertex 0.0368677 0.02662 0.0207882
vertex 0.0344202 0.0193986 0.0306422
endloop
endfacet
facet normal 0.0453895 -0.252017 -0.966658
outer loop
vertex -0.00511604 -0.0139887 -0.0477299
vertex 0.00683727 -0.00665021 -0.0490818
vertex 0.00638066 -0.0184812 -0.0460188
endloop
endfacet
facet normal 0.0496296 -0.00603855 -0.998749
outer loop
vertex 0.00683727 -0.00665021 -0.0490818
vertex -0.00525596 -0.000601939 -0.0497193
vertex 0.00658102 0.00622602 -0.0491724
endloop
endfacet
facet normal -0.590746 0.161644 0.7905
outer loop
vertex -0.0238362 0.0135197 0.0418217
vertex -0.0355422 0.00897423 0.0340032
vertex -0.0289794 -1.36606e-05 0.0407455
endloop
endfacet
facet normal -0.604809 0.267113 0.750238
outer loop
vertex -0.03077 0.0201449 0.0338731
vertex -0.0355422 0.00897423 0.0340032
vertex -0.0238362 0.0135197 0.0418217
endloop
endfacet
facet normal -0.609662 -0.414347 0.675743
outer loop
vertex -0.0238983 -0.0242931 0.0365885
vertex -0.031299 -0.0132945 0.0366555
vertex -0.0331232 -0.0251995 0.0277099
endloop
endfacet
facet normal -0.501765 -0.342469 0.794321
outer loop
vertex -0.0213769 -0.0114083 0.0437365
vertex -0.031299 -0.0132945 0.0366555
vertex -0.0238983 -0.0242931 0.0365885
endloop
endfacet
facet normal -0.174457 -0.146528 -0.973701
outer loop
vertex -0.016019 -0.00826511 -0.0466377
vertex -0.00525596 -0.000601939 -0.0497193
vertex -0.00511604 -0.0139887 -0.0477299
endloop
endfacet
facet normal -0.261571 -0.0206603 -0.964963
outer loop
vertex -0.016506 0.00601907 -0.0468116
vertex -0.00525596 -0.000601939 -0.0497193
vertex -0.016019 -0.00826511 -0.0466377
endloop
endfacet
facet normal -0.874372 0.258837 0.41046
outer loop
vertex -0.0460922 0.0141232 0.0132681
vertex -0.0440318 0.00563557 0.0230095
vertex -0.0395949 0.0179845 0.0246739
endloop
endfacet
facet normal -0.939909 0.132825 0.314529
outer loop
vertex -0.0489523 0.00143228 0.0100806
vertex -0.0440318 0.00563557 0.0230095
vertex -0.0460922 0.0141232 0.0132681
endloop
endfacet
facet normal -0.80126 0.0894601 0.591591
outer loop
vertex -0.0440318 0.00563557 0.0230095
vertex -0.0386573 -0.00289548 0.0315789
vertex -0.0355422 0.00897423 0.0340032
endloop
endfacet
facet normal -0.862683 -0.036814 0.504404
outer loop
vertex -0.0454624 -0.00685591 0.0196511
vertex -0.0386573 -0.00289548 0.0315789
vertex -0.0440318 0.00563557 0.0230095
endloop
endfacet
endsolid netdem
