solid netdem
facet normal 0.0538127 0.747034 -0.662604
outer loop
vertex 0.0240016 0.0302721 -0.0297948
vertex 0.0223295 0.0383152 -0.0208626
vertex 0.0330254 0.040883 -0.017099
endloop
endfacet
facet normal -0.0170445 0.904085 -0.427012
outer loop
vertex -0.0288319 0.0389253 -0.0187749
vertex -0.000431573 0.0470424 -0.00272256
vertex 0.0330254 0.040883 -0.017099
endloop
endfacet
facet normal 0.839525 0.414665 -0.351072
outer loop
vertex 0.0548288 0.0228333 -0.00532238
vertex 0.0582562 0.00408691 -0.0192685
vertex 0.0476551 0.0293082 -0.0148293
endloop
endfacet
facet normal -0.0529569 0.58191 -0.811527
outer loop
vertex 0.0118412 0.0229794 -0.0342305
vertex -0.0485107 0.0262849 -0.027922
vertex 0.0240016 0.0302721 -0.0297948
endloop
endfacet
facet normal 0.477086 -0.423197 0.770255
outer loop
vertex 0.0282741 -0.0163039 0.0381436
vertex 0.0232253 -0.0255721 0.0361787
vertex 0.0404718 -0.0187248 0.0292585
endloop
endfacet
facet normal 0.241983 -0.91364 0.32666
outer loop
vertex -0.000147351 -0.0508726 0.00788946
vertex 0.00750624 -0.0470445 0.0129266
vertex -0.0084052 -0.0489766 0.0193097
endloop
endfacet
facet normal 0.280639 0.336203 -0.899005
outer loop
vertex 0.0338262 0.0319988 -0.0260822
vertex 0.0203372 0.00846459 -0.0390941
vertex 0.0240016 0.0302721 -0.0297948
endloop
endfacet
facet normal 0.198584 0.127563 0.971747
outer loop
vertex 0.0265822 -0.00546869 0.0384479
vertex 0.0358908 -0.00787178 0.0368611
vertex 0.0394628 0.0186458 0.0326501
endloop
endfacet
facet normal -0.263047 0.723607 -0.638121
outer loop
vertex -0.0485107 0.0262849 -0.027922
vertex -0.0649692 0.0263198 -0.0210979
vertex -0.0531703 0.0341013 -0.0171377
endloop
endfacet
facet normal -0.515599 -0.792127 -0.326638
outer loop
vertex -0.0242379 -0.0493404 -0.000814966
vertex -0.0392189 -0.0390035 -0.0022354
vertex -0.0094816 -0.0507689 -0.0206437
endloop
endfacet
facet normal 0.236595 -0.847885 0.474462
outer loop
vertex -0.0084052 -0.0489766 0.0193097
vertex 0.013558 -0.0424264 0.020063
vertex 0.0206001 -0.0357547 0.0284739
endloop
endfacet
facet normal 0.906903 -0.32275 0.270849
outer loop
vertex 0.063287 0.00223455 -0.00724939
vertex 0.0567752 0.00449778 0.0172514
vertex 0.0528542 0.00100264 0.0262155
endloop
endfacet
facet normal 0.210647 0.977562 0.000526165
outer loop
vertex 0.0349963 0.0434627 -0.00684016
vertex 0.0310017 0.0443181 0.00318398
vertex 0.0434068 0.0416461 0.00102826
endloop
endfacet
facet normal 0.935522 0.3437 0.0816653
outer loop
vertex 0.0507909 0.0345045 8.72564e-05
vertex 0.0505284 0.0317603 0.0146444
vertex 0.063287 0.00223455 -0.00724939
endloop
endfacet
facet normal 0.3241 0.308665 -0.894251
outer loop
vertex 0.0338262 0.0319988 -0.0260822
vertex 0.0301962 -0.00287797 -0.039436
vertex 0.0203372 0.00846459 -0.0390941
endloop
endfacet
facet normal 0.175749 -0.349584 -0.920273
outer loop
vertex 0.0248618 -0.0423745 -0.0299024
vertex 0.0137129 -0.0479758 -0.0299038
vertex 0.0394919 -0.0136871 -0.0380059
endloop
endfacet
facet normal -0.0875486 -0.061404 -0.994266
outer loop
vertex 0.0106334 -0.00644624 -0.0374931
vertex 0.00817098 0.00892207 -0.0382254
vertex 0.0301962 -0.00287797 -0.039436
endloop
endfacet
facet normal 0.136063 0.710439 -0.69048
outer loop
vertex 0.0330254 0.040883 -0.017099
vertex 0.0338262 0.0319988 -0.0260822
vertex 0.0240016 0.0302721 -0.0297948
endloop
endfacet
facet normal -0.0185408 0.741266 -0.670955
outer loop
vertex -0.0288319 0.0389253 -0.0187749
vertex 0.0223295 0.0383152 -0.0208626
vertex 0.0240016 0.0302721 -0.0297948
endloop
endfacet
facet normal -0.012003 0.84155 -0.540046
outer loop
vertex 0.0330254 0.040883 -0.017099
vertex 0.0223295 0.0383152 -0.0208626
vertex -0.0288319 0.0389253 -0.0187749
endloop
endfacet
facet normal 0.460001 0.836189 -0.298643
outer loop
vertex 0.0349963 0.0434627 -0.00684016
vertex 0.0434068 0.0416461 0.00102826
vertex 0.0330254 0.040883 -0.017099
endloop
endfacet
facet normal -0.0549901 0.640134 -0.766293
outer loop
vertex 0.0240016 0.0302721 -0.0297948
vertex -0.0485107 0.0262849 -0.027922
vertex -0.0288319 0.0389253 -0.0187749
endloop
endfacet
facet normal 0.402034 0.29061 -0.868283
outer loop
vertex 0.0338262 0.0319988 -0.0260822
vertex 0.0437768 -0.00547394 -0.0340168
vertex 0.0301962 -0.00287797 -0.039436
endloop
endfacet
facet normal 0.0677492 0.964424 -0.255531
outer loop
vertex -0.000431573 0.0470424 -0.00272256
vertex 0.0349963 0.0434627 -0.00684016
vertex 0.0330254 0.040883 -0.017099
endloop
endfacet
facet normal 0.806649 -0.505441 0.306344
outer loop
vertex 0.0460094 -0.00900468 0.0307144
vertex 0.0404718 -0.0187248 0.0292585
vertex 0.0516177 -0.0081696 0.0173247
endloop
endfacet
facet normal -0.382489 0.0475248 -0.922737
outer loop
vertex -0.0495706 0.0144796 -0.0280907
vertex -0.0649692 0.0263198 -0.0210979
vertex -0.0485107 0.0262849 -0.027922
endloop
endfacet
facet normal 0.368964 0.815378 0.446121
outer loop
vertex 0.042111 0.0400236 0.0115807
vertex 0.0292983 0.0433758 0.0160505
vertex 0.038002 0.0344014 0.0252547
endloop
endfacet
facet normal 0.150706 0.988281 -0.0242753
outer loop
vertex 0.00415958 0.0485707 0.00967348
vertex 0.0310017 0.0443181 0.00318398
vertex 0.0349963 0.0434627 -0.00684016
endloop
endfacet
facet normal 0.944437 -0.31082 -0.106912
outer loop
vertex 0.063287 0.00223455 -0.00724939
vertex 0.0552888 -0.018136 -0.018681
vertex 0.058108 -0.00799587 -0.0232566
endloop
endfacet
facet normal -0.0491819 0.291331 -0.955357
outer loop
vertex 0.0203372 0.00846459 -0.0390941
vertex -0.00275339 0.0121816 -0.0367719
vertex 0.0118412 0.0229794 -0.0342305
endloop
endfacet
facet normal -0.185416 -0.0765114 -0.979677
outer loop
vertex -0.0495706 0.0144796 -0.0280907
vertex -0.00275339 0.0121816 -0.0367719
vertex -0.00106494 -0.000875371 -0.0360718
endloop
endfacet
facet normal -0.340163 0.165171 0.925747
outer loop
vertex -0.04174 0.0166096 0.0226272
vertex -0.0204382 0.00837881 0.031923
vertex -0.0284739 0.0162621 0.0275638
endloop
endfacet
facet normal -0.638702 -0.140297 0.756555
outer loop
vertex -0.0662345 0.00464041 0.00825241
vertex -0.0484528 -0.0235192 0.0180421
vertex -0.042069 -0.0312569 0.0219966
endloop
endfacet
facet normal -0.396234 -0.340755 -0.852575
outer loop
vertex -0.0495706 0.0144796 -0.0280907
vertex 0.00334952 -0.0470639 -0.0280878
vertex -0.0094816 -0.0507689 -0.0206437
endloop
endfacet
facet normal -0.193454 -0.978354 -0.0734846
outer loop
vertex -0.0109893 -0.0526929 0.00894091
vertex -0.0242379 -0.0493404 -0.000814966
vertex -0.0094816 -0.0507689 -0.0206437
endloop
endfacet
facet normal 0.606669 0.0681771 -0.792026
outer loop
vertex 0.0394919 -0.0136871 -0.0380059
vertex 0.0437768 -0.00547394 -0.0340168
vertex 0.058108 -0.00799587 -0.0232566
endloop
endfacet
facet normal -0.159285 0.729405 -0.66528
outer loop
vertex -0.0485107 0.0262849 -0.027922
vertex -0.0436536 0.0360897 -0.0183351
vertex -0.0288319 0.0389253 -0.0187749
endloop
endfacet
facet normal -0.233745 0.73648 -0.634791
outer loop
vertex -0.0531703 0.0341013 -0.0171377
vertex -0.0436536 0.0360897 -0.0183351
vertex -0.0485107 0.0262849 -0.027922
endloop
endfacet
facet normal 0.156368 0.972001 0.175396
outer loop
vertex 0.00320193 0.0462406 0.0234401
vertex 0.0292983 0.0433758 0.0160505
vertex 0.00415958 0.0485707 0.00967348
endloop
endfacet
facet normal 0.266846 0.429657 0.862663
outer loop
vertex 0.038002 0.0344014 0.0252547
vertex 0.0246084 0.0367737 0.0282162
vertex 0.0394628 0.0186458 0.0326501
endloop
endfacet
facet normal 0.650761 0.734388 0.19283
outer loop
vertex 0.0505284 0.0317603 0.0146444
vertex 0.0434068 0.0416461 0.00102826
vertex 0.042111 0.0400236 0.0115807
endloop
endfacet
facet normal 0.397879 0.224475 -0.889552
outer loop
vertex 0.0301962 -0.00287797 -0.039436
vertex 0.0437768 -0.00547394 -0.0340168
vertex 0.0394919 -0.0136871 -0.0380059
endloop
endfacet
facet normal 0.307659 0.934046 0.181397
outer loop
vertex 0.042111 0.0400236 0.0115807
vertex 0.0434068 0.0416461 0.00102826
vertex 0.0292983 0.0433758 0.0160505
endloop
endfacet
facet normal 0.789707 -0.565802 0.237132
outer loop
vertex 0.0516177 -0.0081696 0.0173247
vertex 0.0404718 -0.0187248 0.0292585
vertex 0.0552888 -0.018136 -0.018681
endloop
endfacet
facet normal 0.444284 -0.884274 -0.143778
outer loop
vertex 0.0248618 -0.0423745 -0.0299024
vertex 0.0204636 -0.0463716 -0.0189098
vertex 0.0137129 -0.0479758 -0.0299038
endloop
endfacet
facet normal 0.888836 -0.375032 0.263292
outer loop
vertex 0.0528542 0.00100264 0.0262155
vertex 0.0516177 -0.0081696 0.0173247
vertex 0.063287 0.00223455 -0.00724939
endloop
endfacet
facet normal -0.255321 0.842717 0.473962
outer loop
vertex -0.00656019 0.046461 0.0177895
vertex -0.0128682 0.0404263 0.0251212
vertex 0.00320193 0.0462406 0.0234401
endloop
endfacet
facet normal 0.00106959 0.184328 0.982864
outer loop
vertex 0.0164719 0.0273367 0.0326418
vertex 0.0106038 0.0159664 0.0347806
vertex 0.0281152 0.00804644 0.0362469
endloop
endfacet
facet normal 0.626743 0.382887 -0.678669
outer loop
vertex 0.0476551 0.0293082 -0.0148293
vertex 0.0582562 0.00408691 -0.0192685
vertex 0.0338262 0.0319988 -0.0260822
endloop
endfacet
facet normal 0.568212 0.609844 -0.552472
outer loop
vertex 0.0330254 0.040883 -0.017099
vertex 0.0476551 0.0293082 -0.0148293
vertex 0.0338262 0.0319988 -0.0260822
endloop
endfacet
facet normal -0.384064 0.894585 0.2285
outer loop
vertex -0.0209399 0.0436826 0.0133713
vertex -0.0361106 0.039526 0.00414517
vertex -0.0321539 0.0384123 0.0151561
endloop
endfacet
facet normal 0.432761 -0.891239 -0.135686
outer loop
vertex 0.0137129 -0.0479758 -0.0299038
vertex 0.0204636 -0.0463716 -0.0189098
vertex 0.0102638 -0.0515034 -0.0177339
endloop
endfacet
facet normal 0.00330353 -0.0275542 0.999615
outer loop
vertex 0.0265822 -0.00546869 0.0384479
vertex 0.0164365 -0.0121482 0.0382973
vertex 0.0282741 -0.0163039 0.0381436
endloop
endfacet
facet normal -0.248381 0.954791 -0.163346
outer loop
vertex -0.026301 0.0441339 0.000647834
vertex -0.0290931 0.0417347 -0.00913044
vertex -0.0531703 0.0341013 -0.0171377
endloop
endfacet
facet normal -0.0336255 -0.159456 -0.986632
outer loop
vertex 0.0309058 -0.0224891 -0.0362907
vertex 0.0301962 -0.00287797 -0.039436
vertex 0.0394919 -0.0136871 -0.0380059
endloop
endfacet
facet normal 0.715519 -0.665336 0.21298
outer loop
vertex 0.0552888 -0.018136 -0.018681
vertex 0.0404718 -0.0187248 0.0292585
vertex 0.0341663 -0.0276495 0.0225619
endloop
endfacet
facet normal 0.111644 0.373868 -0.920738
outer loop
vertex 0.0240016 0.0302721 -0.0297948
vertex 0.0203372 0.00846459 -0.0390941
vertex 0.0118412 0.0229794 -0.0342305
endloop
endfacet
facet normal 0.170869 -0.346415 -0.922388
outer loop
vertex 0.0394919 -0.0136871 -0.0380059
vertex 0.0137129 -0.0479758 -0.0299038
vertex 0.0309058 -0.0224891 -0.0362907
endloop
endfacet
facet normal -0.212652 0.970556 0.113138
outer loop
vertex -0.00656019 0.046461 0.0177895
vertex -0.0102251 0.0473737 0.00307071
vertex -0.026301 0.0441339 0.000647834
endloop
endfacet
facet normal -0.113733 0.953034 -0.280699
outer loop
vertex -0.0288319 0.0389253 -0.0187749
vertex -0.0290931 0.0417347 -0.00913044
vertex -0.000431573 0.0470424 -0.00272256
endloop
endfacet
facet normal 0.534677 0.712887 0.453777
outer loop
vertex 0.038002 0.0344014 0.0252547
vertex 0.0505284 0.0317603 0.0146444
vertex 0.042111 0.0400236 0.0115807
endloop
endfacet
facet normal 0.908031 0.387693 -0.158661
outer loop
vertex 0.0548288 0.0228333 -0.00532238
vertex 0.0507909 0.0345045 8.72564e-05
vertex 0.063287 0.00223455 -0.00724939
endloop
endfacet
facet normal -0.298146 0.846808 0.440483
outer loop
vertex -0.0241924 0.0381113 0.0219068
vertex -0.0128682 0.0404263 0.0251212
vertex -0.00656019 0.046461 0.0177895
endloop
endfacet
facet normal -0.145378 0.168468 0.974927
outer loop
vertex -0.0155163 0.0195783 0.0317129
vertex -0.00342211 0.0160631 0.0341238
vertex -0.0110653 0.0305819 0.0304752
endloop
endfacet
facet normal 0.834726 0.441397 -0.329244
outer loop
vertex 0.0476551 0.0293082 -0.0148293
vertex 0.0507909 0.0345045 8.72564e-05
vertex 0.0548288 0.0228333 -0.00532238
endloop
endfacet
facet normal 0.697348 0.701933 0.1449
outer loop
vertex 0.0507909 0.0345045 8.72564e-05
vertex 0.0434068 0.0416461 0.00102826
vertex 0.0505284 0.0317603 0.0146444
endloop
endfacet
facet normal 0.873375 -0.427236 0.233848
outer loop
vertex 0.0516177 -0.0081696 0.0173247
vertex 0.0576871 -0.00853192 -0.00600506
vertex 0.063287 0.00223455 -0.00724939
endloop
endfacet
facet normal 0.58363 -0.797973 0.150381
outer loop
vertex 0.0204636 -0.0463716 -0.0189098
vertex 0.0251565 -0.0364327 0.0156162
vertex 0.0181707 -0.043358 0.00598025
endloop
endfacet
facet normal 0.842188 -0.429495 0.325966
outer loop
vertex 0.0460094 -0.00900468 0.0307144
vertex 0.0516177 -0.0081696 0.0173247
vertex 0.0528542 0.00100264 0.0262155
endloop
endfacet
facet normal 0.891867 0.118774 0.436424
outer loop
vertex 0.0528542 0.00100264 0.0262155
vertex 0.0567752 0.00449778 0.0172514
vertex 0.0505207 0.0166864 0.0267157
endloop
endfacet
facet normal 0.59131 -0.707786 0.386512
outer loop
vertex 0.0341663 -0.0276495 0.0225619
vertex 0.0404718 -0.0187248 0.0292585
vertex 0.0206001 -0.0357547 0.0284739
endloop
endfacet
facet normal 0.514166 -0.827425 0.225835
outer loop
vertex 0.013558 -0.0424264 0.020063
vertex 0.0251565 -0.0364327 0.0156162
vertex 0.0206001 -0.0357547 0.0284739
endloop
endfacet
facet normal 0.303449 -0.623456 0.72057
outer loop
vertex 0.0232253 -0.0255721 0.0361787
vertex 0.0102972 -0.0349517 0.0335075
vertex 0.0206001 -0.0357547 0.0284739
endloop
endfacet
facet normal -0.0180109 -0.9916 -0.128086
outer loop
vertex 0.0102638 -0.0515034 -0.0177339
vertex -0.00424224 -0.0526479 -0.00683396
vertex -0.0094816 -0.0507689 -0.0206437
endloop
endfacet
facet normal 0.628877 -0.0825749 0.773107
outer loop
vertex 0.0528542 0.00100264 0.0262155
vertex 0.0446297 0.00509384 0.0333426
vertex 0.0460094 -0.00900468 0.0307144
endloop
endfacet
facet normal 0.674532 0.0769408 0.734225
outer loop
vertex 0.0505207 0.0166864 0.0267157
vertex 0.0446297 0.00509384 0.0333426
vertex 0.0528542 0.00100264 0.0262155
endloop
endfacet
facet normal -0.408986 0.0330317 0.911943
outer loop
vertex -0.031622 -0.0287426 0.0288076
vertex -0.0175588 -0.0133712 0.0345579
vertex -0.04174 0.0166096 0.0226272
endloop
endfacet
facet normal 0.033867 0.203313 0.978528
outer loop
vertex 0.0281152 0.00804644 0.0362469
vertex 0.0306377 0.0230269 0.033047
vertex 0.0164719 0.0273367 0.0326418
endloop
endfacet
facet normal 0.870637 0.386022 -0.304924
outer loop
vertex 0.063287 0.00223455 -0.00724939
vertex 0.0582562 0.00408691 -0.0192685
vertex 0.0548288 0.0228333 -0.00532238
endloop
endfacet
facet normal 0.922755 0.110541 -0.369195
outer loop
vertex 0.058108 -0.00799587 -0.0232566
vertex 0.0582562 0.00408691 -0.0192685
vertex 0.063287 0.00223455 -0.00724939
endloop
endfacet
facet normal 0.152729 -0.985205 0.0777546
outer loop
vertex 0.00677033 -0.0508998 -0.00322367
vertex -0.0109893 -0.0526929 0.00894091
vertex 0.0102638 -0.0515034 -0.0177339
endloop
endfacet
facet normal 0.620065 -0.775635 0.117939
outer loop
vertex 0.0285006 -0.0398104 -0.018014
vertex 0.0327404 -0.0331225 0.00367846
vertex 0.0204636 -0.0463716 -0.0189098
endloop
endfacet
facet normal -0.505952 0.587297 0.63174
outer loop
vertex -0.0241924 0.0381113 0.0219068
vertex -0.0699066 0.0249971 -0.00251341
vertex -0.0673085 0.0183339 0.00576175
endloop
endfacet
facet normal -0.914217 0.368688 0.168155
outer loop
vertex -0.0746894 0.0137148 -0.0037797
vertex -0.0699066 0.0249971 -0.00251341
vertex -0.0714287 0.0257358 -0.0124084
endloop
endfacet
facet normal 0.809269 -0.413346 -0.417406
outer loop
vertex 0.0552888 -0.018136 -0.018681
vertex 0.0469083 -0.020504 -0.0325843
vertex 0.058108 -0.00799587 -0.0232566
endloop
endfacet
facet normal 0.65916 -0.698595 -0.278341
outer loop
vertex 0.0248618 -0.0423745 -0.0299024
vertex 0.0469083 -0.020504 -0.0325843
vertex 0.0552888 -0.018136 -0.018681
endloop
endfacet
facet normal 0.627634 -0.769655 0.117073
outer loop
vertex 0.0327404 -0.0331225 0.00367846
vertex 0.042933 -0.0284587 -0.0203034
vertex 0.0552888 -0.018136 -0.018681
endloop
endfacet
facet normal 0.00508842 -0.960837 -0.277069
outer loop
vertex -0.0094816 -0.0507689 -0.0206437
vertex 0.0137129 -0.0479758 -0.0299038
vertex 0.0102638 -0.0515034 -0.0177339
endloop
endfacet
facet normal -0.0685377 -0.160405 -0.984669
outer loop
vertex 0.0309058 -0.0224891 -0.0362907
vertex 0.0106334 -0.00644624 -0.0374931
vertex 0.0301962 -0.00287797 -0.039436
endloop
endfacet
facet normal -0.0145151 -0.233833 -0.972168
outer loop
vertex 0.0137129 -0.0479758 -0.0299038
vertex 0.0162706 -0.0345236 -0.0331776
vertex 0.0309058 -0.0224891 -0.0362907
endloop
endfacet
facet normal -0.480585 0.86593 0.138573
outer loop
vertex -0.0714287 0.0257358 -0.0124084
vertex -0.0699066 0.0249971 -0.00251341
vertex -0.060146 0.0314149 -0.00876712
endloop
endfacet
facet normal -0.43042 0.89992 -0.0698745
outer loop
vertex -0.0714287 0.0257358 -0.0124084
vertex -0.060146 0.0314149 -0.00876712
vertex -0.0531703 0.0341013 -0.0171377
endloop
endfacet
facet normal -0.188415 0.941517 -0.279366
outer loop
vertex -0.0436536 0.0360897 -0.0183351
vertex -0.0290931 0.0417347 -0.00913044
vertex -0.0288319 0.0389253 -0.0187749
endloop
endfacet
facet normal -0.226215 0.948069 -0.22359
outer loop
vertex -0.0531703 0.0341013 -0.0171377
vertex -0.0290931 0.0417347 -0.00913044
vertex -0.0436536 0.0360897 -0.0183351
endloop
endfacet
facet normal -0.119956 0.958772 -0.257618
outer loop
vertex -0.0290931 0.0417347 -0.00913044
vertex -0.0102251 0.0473737 0.00307071
vertex -0.000431573 0.0470424 -0.00272256
endloop
endfacet
facet normal 0.0818896 0.985018 -0.151771
outer loop
vertex -0.000431573 0.0470424 -0.00272256
vertex 0.00415958 0.0485707 0.00967348
vertex 0.0349963 0.0434627 -0.00684016
endloop
endfacet
facet normal 0.491923 0.291697 0.82032
outer loop
vertex 0.0483068 0.0269105 0.0244077
vertex 0.0394628 0.0186458 0.0326501
vertex 0.0505207 0.0166864 0.0267157
endloop
endfacet
facet normal 0.374745 0.422182 0.825426
outer loop
vertex 0.038002 0.0344014 0.0252547
vertex 0.0394628 0.0186458 0.0326501
vertex 0.0483068 0.0269105 0.0244077
endloop
endfacet
facet normal -0.072087 0.509414 0.857497
outer loop
vertex 0.00124635 0.0334101 0.030898
vertex 0.0111038 0.0410961 0.0271606
vertex 0.00320193 0.0462406 0.0234401
endloop
endfacet
facet normal 0.0484099 0.385888 0.921275
outer loop
vertex 0.0164719 0.0273367 0.0326418
vertex 0.0111038 0.0410961 0.0271606
vertex 0.00124635 0.0334101 0.030898
endloop
endfacet
facet normal 0.429571 -0.882579 0.191108
outer loop
vertex 0.00750624 -0.0470445 0.0129266
vertex 0.00677033 -0.0508998 -0.00322367
vertex 0.0181707 -0.043358 0.00598025
endloop
endfacet
facet normal 0.254733 -0.895974 0.363788
outer loop
vertex 0.00750624 -0.0470445 0.0129266
vertex 0.013558 -0.0424264 0.020063
vertex -0.0084052 -0.0489766 0.0193097
endloop
endfacet
facet normal 0.513653 -0.828498 0.22305
outer loop
vertex 0.0181707 -0.043358 0.00598025
vertex 0.0251565 -0.0364327 0.0156162
vertex 0.013558 -0.0424264 0.020063
endloop
endfacet
facet normal 0.645735 -0.753551 -0.123233
outer loop
vertex 0.0552888 -0.018136 -0.018681
vertex 0.042933 -0.0284587 -0.0203034
vertex 0.0248618 -0.0423745 -0.0299024
endloop
endfacet
facet normal 0.923006 0.240237 0.300576
outer loop
vertex 0.0567752 0.00449778 0.0172514
vertex 0.0505284 0.0317603 0.0146444
vertex 0.0505207 0.0166864 0.0267157
endloop
endfacet
facet normal 0.94469 0.26713 0.190269
outer loop
vertex 0.0505284 0.0317603 0.0146444
vertex 0.0568942 0.014479 0.00730013
vertex 0.063287 0.00223455 -0.00724939
endloop
endfacet
facet normal 0.488461 -0.394838 0.778144
outer loop
vertex 0.0282741 -0.0163039 0.0381436
vertex 0.0404718 -0.0187248 0.0292585
vertex 0.0460094 -0.00900468 0.0307144
endloop
endfacet
facet normal 0.491519 -0.602506 0.628804
outer loop
vertex 0.0404718 -0.0187248 0.0292585
vertex 0.0232253 -0.0255721 0.0361787
vertex 0.0206001 -0.0357547 0.0284739
endloop
endfacet
facet normal 0.507035 -0.109748 0.85491
outer loop
vertex 0.0446297 0.00509384 0.0333426
vertex 0.0358908 -0.00787178 0.0368611
vertex 0.0460094 -0.00900468 0.0307144
endloop
endfacet
facet normal 0.179582 0.13825 0.97398
outer loop
vertex 0.0265822 -0.00546869 0.0384479
vertex 0.0394628 0.0186458 0.0326501
vertex 0.0281152 0.00804644 0.0362469
endloop
endfacet
facet normal -0.15523 -0.444658 0.882147
outer loop
vertex -0.00895168 -0.0288464 0.0362769
vertex -0.0212007 -0.030335 0.0333711
vertex -0.00802452 -0.042016 0.0298017
endloop
endfacet
facet normal -0.303624 0.411712 0.859247
outer loop
vertex -0.0128682 0.0404263 0.0251212
vertex -0.0274709 0.0284741 0.0256881
vertex -0.0110653 0.0305819 0.0304752
endloop
endfacet
facet normal -0.339766 0.169985 0.925021
outer loop
vertex -0.0284739 0.0162621 0.0275638
vertex -0.0274709 0.0284741 0.0256881
vertex -0.04174 0.0166096 0.0226272
endloop
endfacet
facet normal -0.134595 0.454295 0.880625
outer loop
vertex -0.0128682 0.0404263 0.0251212
vertex -0.0110653 0.0305819 0.0304752
vertex 0.00124635 0.0334101 0.030898
endloop
endfacet
facet normal 0.175039 -0.978244 0.111352
outer loop
vertex -0.000147351 -0.0508726 0.00788946
vertex -0.0109893 -0.0526929 0.00894091
vertex 0.00677033 -0.0508998 -0.00322367
endloop
endfacet
facet normal -0.0110797 -0.441828 0.897031
outer loop
vertex -0.00802452 -0.042016 0.0298017
vertex 0.0102972 -0.0349517 0.0335075
vertex -0.00895168 -0.0288464 0.0362769
endloop
endfacet
facet normal -0.204646 -0.817633 0.538142
outer loop
vertex -0.0084052 -0.0489766 0.0193097
vertex -0.0212251 -0.0434339 0.0228559
vertex -0.0210353 -0.0505204 0.012161
endloop
endfacet
facet normal -0.228587 -0.0190202 0.973338
outer loop
vertex -0.00895168 -0.0288464 0.0362769
vertex -0.0175588 -0.0133712 0.0345579
vertex -0.0212007 -0.030335 0.0333711
endloop
endfacet
facet normal -0.544072 0.108654 0.831973
outer loop
vertex -0.0662345 0.00464041 0.00825241
vertex -0.0540037 0.0146201 0.0149475
vertex -0.0673085 0.0183339 0.00576175
endloop
endfacet
facet normal -0.459283 0.841373 -0.28487
outer loop
vertex -0.0531703 0.0341013 -0.0171377
vertex -0.0649692 0.0263198 -0.0210979
vertex -0.0714287 0.0257358 -0.0124084
endloop
endfacet
facet normal -0.798833 0.143511 -0.584183
outer loop
vertex -0.0649692 0.0263198 -0.0210979
vertex -0.0701962 0.0154523 -0.01662
vertex -0.0714287 0.0257358 -0.0124084
endloop
endfacet
facet normal -0.944553 0.0209993 -0.327685
outer loop
vertex -0.0701962 0.0154523 -0.01662
vertex -0.0746894 0.0137148 -0.0037797
vertex -0.0714287 0.0257358 -0.0124084
endloop
endfacet
facet normal 0.833543 -0.504699 0.224688
outer loop
vertex 0.0552888 -0.018136 -0.018681
vertex 0.0576871 -0.00853192 -0.00600506
vertex 0.0516177 -0.0081696 0.0173247
endloop
endfacet
facet normal 0.88256 -0.439825 0.166261
outer loop
vertex 0.063287 0.00223455 -0.00724939
vertex 0.0576871 -0.00853192 -0.00600506
vertex 0.0552888 -0.018136 -0.018681
endloop
endfacet
facet normal 0.281267 -0.390993 -0.876364
outer loop
vertex 0.0394919 -0.0136871 -0.0380059
vertex 0.0469083 -0.020504 -0.0325843
vertex 0.0248618 -0.0423745 -0.0299024
endloop
endfacet
facet normal 0.61308 0.0394572 -0.789035
outer loop
vertex 0.058108 -0.00799587 -0.0232566
vertex 0.0469083 -0.020504 -0.0325843
vertex 0.0394919 -0.0136871 -0.0380059
endloop
endfacet
facet normal -0.186104 -0.198786 -0.962211
outer loop
vertex 0.00334952 -0.0470639 -0.0280878
vertex 0.0162706 -0.0345236 -0.0331776
vertex 0.0137129 -0.0479758 -0.0299038
endloop
endfacet
facet normal -0.180759 -0.720063 -0.669952
outer loop
vertex -0.0094816 -0.0507689 -0.0206437
vertex 0.00334952 -0.0470639 -0.0280878
vertex 0.0137129 -0.0479758 -0.0299038
endloop
endfacet
facet normal 0.568875 0.312171 -0.760875
outer loop
vertex 0.0582562 0.00408691 -0.0192685
vertex 0.0437768 -0.00547394 -0.0340168
vertex 0.0338262 0.0319988 -0.0260822
endloop
endfacet
facet normal 0.609459 0.241743 -0.755063
outer loop
vertex 0.058108 -0.00799587 -0.0232566
vertex 0.0437768 -0.00547394 -0.0340168
vertex 0.0582562 0.00408691 -0.0192685
endloop
endfacet
facet normal -0.154383 -0.0728013 -0.985325
outer loop
vertex -0.00106494 -0.000875371 -0.0360718
vertex -0.00275339 0.0121816 -0.0367719
vertex 0.0106334 -0.00644624 -0.0374931
endloop
endfacet
facet normal -0.0724167 -0.0328964 -0.996832
outer loop
vertex 0.0301962 -0.00287797 -0.039436
vertex 0.00817098 0.00892207 -0.0382254
vertex 0.0203372 0.00846459 -0.0390941
endloop
endfacet
facet normal -0.166384 0.967602 -0.189902
outer loop
vertex -0.026301 0.0441339 0.000647834
vertex -0.0102251 0.0473737 0.00307071
vertex -0.0290931 0.0417347 -0.00913044
endloop
endfacet
facet normal -0.0713393 0.984269 0.161633
outer loop
vertex 0.00320193 0.0462406 0.0234401
vertex 0.00415958 0.0485707 0.00967348
vertex -0.00656019 0.046461 0.0177895
endloop
endfacet
facet normal 0.202678 0.126891 0.970989
outer loop
vertex 0.0394628 0.0186458 0.0326501
vertex 0.0358908 -0.00787178 0.0368611
vertex 0.0446297 0.00509384 0.0333426
endloop
endfacet
facet normal 0.49153 0.23032 0.839852
outer loop
vertex 0.0505207 0.0166864 0.0267157
vertex 0.0394628 0.0186458 0.0326501
vertex 0.0446297 0.00509384 0.0333426
endloop
endfacet
facet normal -0.0320746 0.200729 0.979122
outer loop
vertex 0.00124635 0.0334101 0.030898
vertex 0.0106038 0.0159664 0.0347806
vertex 0.0164719 0.0273367 0.0326418
endloop
endfacet
facet normal 0.0838658 0.362908 0.928043
outer loop
vertex 0.0164719 0.0273367 0.0326418
vertex 0.0306377 0.0230269 0.033047
vertex 0.0246084 0.0367737 0.0282162
endloop
endfacet
facet normal 0.434078 -0.87833 0.200282
outer loop
vertex 0.0181707 -0.043358 0.00598025
vertex 0.013558 -0.0424264 0.020063
vertex 0.00750624 -0.0470445 0.0129266
endloop
endfacet
facet normal 0.584392 -0.797463 0.150131
outer loop
vertex 0.0327404 -0.0331225 0.00367846
vertex 0.0251565 -0.0364327 0.0156162
vertex 0.0204636 -0.0463716 -0.0189098
endloop
endfacet
facet normal 0.32632 -0.922677 0.205385
outer loop
vertex -0.000147351 -0.0508726 0.00788946
vertex 0.00677033 -0.0508998 -0.00322367
vertex 0.00750624 -0.0470445 0.0129266
endloop
endfacet
facet normal 0.185754 -0.938773 0.290174
outer loop
vertex -0.0084052 -0.0489766 0.0193097
vertex -0.0109893 -0.0526929 0.00894091
vertex -0.000147351 -0.0508726 0.00788946
endloop
endfacet
facet normal 0.459525 -0.875687 0.148358
outer loop
vertex 0.00677033 -0.0508998 -0.00322367
vertex 0.0204636 -0.0463716 -0.0189098
vertex 0.0181707 -0.043358 0.00598025
endloop
endfacet
facet normal 0.458027 -0.876743 0.146745
outer loop
vertex 0.0102638 -0.0515034 -0.0177339
vertex 0.0204636 -0.0463716 -0.0189098
vertex 0.00677033 -0.0508998 -0.00322367
endloop
endfacet
facet normal 0.625348 -0.771721 0.1157
outer loop
vertex 0.0285006 -0.0398104 -0.018014
vertex 0.042933 -0.0284587 -0.0203034
vertex 0.0327404 -0.0331225 0.00367846
endloop
endfacet
facet normal 0.653992 -0.738373 0.164621
outer loop
vertex 0.0341663 -0.0276495 0.0225619
vertex 0.0327404 -0.0331225 0.00367846
vertex 0.0552888 -0.018136 -0.018681
endloop
endfacet
facet normal 0.544139 0.695477 0.469281
outer loop
vertex 0.0483068 0.0269105 0.0244077
vertex 0.0505284 0.0317603 0.0146444
vertex 0.038002 0.0344014 0.0252547
endloop
endfacet
facet normal 0.900392 0.271682 0.339828
outer loop
vertex 0.0505207 0.0166864 0.0267157
vertex 0.0505284 0.0317603 0.0146444
vertex 0.0483068 0.0269105 0.0244077
endloop
endfacet
facet normal 0.0933073 -0.254883 0.962459
outer loop
vertex 0.0282741 -0.0163039 0.0381436
vertex 0.00880526 -0.0254891 0.0375986
vertex 0.0232253 -0.0255721 0.0361787
endloop
endfacet
facet normal 0.0883163 -0.383529 0.919296
outer loop
vertex 0.0232253 -0.0255721 0.0361787
vertex 0.00880526 -0.0254891 0.0375986
vertex 0.0102972 -0.0349517 0.0335075
endloop
endfacet
facet normal -0.20463 0.108179 0.972843
outer loop
vertex -0.0204382 0.00837881 0.031923
vertex -0.00603831 -0.00314217 0.0362331
vertex -0.0155163 0.0195783 0.0317129
endloop
endfacet
facet normal -0.00945761 0.161777 0.986782
outer loop
vertex 0.0281152 0.00804644 0.0362469
vertex 0.0106038 0.0159664 0.0347806
vertex 0.0265822 -0.00546869 0.0384479
endloop
endfacet
facet normal 0.167667 -0.0015023 0.985842
outer loop
vertex 0.0282741 -0.0163039 0.0381436
vertex 0.0358908 -0.00787178 0.0368611
vertex 0.0265822 -0.00546869 0.0384479
endloop
endfacet
facet normal 0.470755 -0.298973 0.830063
outer loop
vertex 0.0460094 -0.00900468 0.0307144
vertex 0.0358908 -0.00787178 0.0368611
vertex 0.0282741 -0.0163039 0.0381436
endloop
endfacet
facet normal -0.0454124 0.135481 0.989739
outer loop
vertex 0.0106038 0.0159664 0.0347806
vertex -0.00342211 0.0160631 0.0341238
vertex 0.0265822 -0.00546869 0.0384479
endloop
endfacet
facet normal -0.0955563 0.511079 0.854206
outer loop
vertex 0.00320193 0.0462406 0.0234401
vertex -0.0128682 0.0404263 0.0251212
vertex 0.00124635 0.0334101 0.030898
endloop
endfacet
facet normal -0.298662 0.847278 0.439229
outer loop
vertex -0.00656019 0.046461 0.0177895
vertex -0.0209399 0.0436826 0.0133713
vertex -0.0241924 0.0381113 0.0219068
endloop
endfacet
facet normal -0.226354 0.965382 0.129619
outer loop
vertex -0.026301 0.0441339 0.000647834
vertex -0.0209399 0.0436826 0.0133713
vertex -0.00656019 0.046461 0.0177895
endloop
endfacet
facet normal -0.489398 0.386968 0.781502
outer loop
vertex -0.04174 0.0166096 0.0226272
vertex -0.0274709 0.0284741 0.0256881
vertex -0.0673085 0.0183339 0.00576175
endloop
endfacet
facet normal -0.819708 0.292204 0.492641
outer loop
vertex -0.0673085 0.0183339 0.00576175
vertex -0.0699066 0.0249971 -0.00251341
vertex -0.0746894 0.0137148 -0.0037797
endloop
endfacet
facet normal -0.27291 -0.698718 0.661297
outer loop
vertex -0.00802452 -0.042016 0.0298017
vertex -0.0371345 -0.0408625 0.0190071
vertex -0.0212251 -0.0434339 0.0228559
endloop
endfacet
facet normal -0.416165 -0.434531 0.798742
outer loop
vertex -0.0212007 -0.030335 0.0333711
vertex -0.031622 -0.0287426 0.0288076
vertex -0.042069 -0.0312569 0.0219966
endloop
endfacet
facet normal 0.161206 -0.825083 0.541526
outer loop
vertex -0.0084052 -0.0489766 0.0193097
vertex 0.00159765 -0.0407343 0.0288901
vertex -0.00802452 -0.042016 0.0298017
endloop
endfacet
facet normal 0.231723 -0.843819 0.484018
outer loop
vertex 0.0206001 -0.0357547 0.0284739
vertex 0.00159765 -0.0407343 0.0288901
vertex -0.0084052 -0.0489766 0.0193097
endloop
endfacet
facet normal -0.0873579 -0.930651 0.355328
outer loop
vertex -0.0210353 -0.0505204 0.012161
vertex -0.0109893 -0.0526929 0.00894091
vertex -0.0084052 -0.0489766 0.0193097
endloop
endfacet
facet normal -0.422959 0.873689 0.240363
outer loop
vertex -0.0321539 0.0384123 0.0151561
vertex -0.0361106 0.039526 0.00414517
vertex -0.0699066 0.0249971 -0.00251341
endloop
endfacet
facet normal -0.200308 -0.813046 0.546656
outer loop
vertex -0.00802452 -0.042016 0.0298017
vertex -0.0212251 -0.0434339 0.0228559
vertex -0.0084052 -0.0489766 0.0193097
endloop
endfacet
facet normal -0.258782 -0.807319 0.530347
outer loop
vertex -0.0212251 -0.0434339 0.0228559
vertex -0.0371345 -0.0408625 0.0190071
vertex -0.0210353 -0.0505204 0.012161
endloop
endfacet
facet normal -0.486784 -0.122259 -0.864924
outer loop
vertex -0.0495706 0.0144796 -0.0280907
vertex -0.0701962 0.0154523 -0.01662
vertex -0.0649692 0.0263198 -0.0210979
endloop
endfacet
facet normal -0.463771 -0.376476 -0.801987
outer loop
vertex -0.0094816 -0.0507689 -0.0206437
vertex -0.0701962 0.0154523 -0.01662
vertex -0.0495706 0.0144796 -0.0280907
endloop
endfacet
facet normal -0.6104 -0.726709 -0.315128
outer loop
vertex -0.0465294 -0.0381277 0.00990548
vertex -0.0515413 -0.0304751 0.00196568
vertex -0.0392189 -0.0390035 -0.0022354
endloop
endfacet
facet normal -0.22162 -0.974543 -0.0339245
outer loop
vertex -0.0210353 -0.0505204 0.012161
vertex -0.0242379 -0.0493404 -0.000814966
vertex -0.0109893 -0.0526929 0.00894091
endloop
endfacet
facet normal -0.585459 -0.554645 -0.591275
outer loop
vertex -0.0392189 -0.0390035 -0.0022354
vertex -0.0515413 -0.0304751 0.00196568
vertex -0.0094816 -0.0507689 -0.0206437
endloop
endfacet
facet normal -0.438935 -0.898123 0.0266619
outer loop
vertex -0.0210353 -0.0505204 0.012161
vertex -0.0465294 -0.0381277 0.00990548
vertex -0.0242379 -0.0493404 -0.000814966
endloop
endfacet
facet normal -0.152449 -0.0713962 -0.985729
outer loop
vertex 0.0106334 -0.00644624 -0.0374931
vertex -0.00275339 0.0121816 -0.0367719
vertex 0.00817098 0.00892207 -0.0382254
endloop
endfacet
facet normal -0.0607286 0.229614 -0.971385
outer loop
vertex 0.00817098 0.00892207 -0.0382254
vertex -0.00275339 0.0121816 -0.0367719
vertex 0.0203372 0.00846459 -0.0390941
endloop
endfacet
facet normal -0.197109 -0.187478 -0.962289
outer loop
vertex 0.0106334 -0.00644624 -0.0374931
vertex 0.0162706 -0.0345236 -0.0331776
vertex 0.00334952 -0.0470639 -0.0280878
endloop
endfacet
facet normal -0.0728703 -0.165789 -0.983465
outer loop
vertex 0.0309058 -0.0224891 -0.0362907
vertex 0.0162706 -0.0345236 -0.0331776
vertex 0.0106334 -0.00644624 -0.0374931
endloop
endfacet
facet normal -0.205191 -0.185716 -0.96094
outer loop
vertex 0.00334952 -0.0470639 -0.0280878
vertex -0.00106494 -0.000875371 -0.0360718
vertex 0.0106334 -0.00644624 -0.0374931
endloop
endfacet
facet normal -0.21667 -0.186356 -0.958293
outer loop
vertex -0.0495706 0.0144796 -0.0280907
vertex -0.00106494 -0.000875371 -0.0360718
vertex 0.00334952 -0.0470639 -0.0280878
endloop
endfacet
facet normal -0.124563 0.987911 0.0922804
outer loop
vertex 0.00415958 0.0485707 0.00967348
vertex -0.0102251 0.0473737 0.00307071
vertex -0.00656019 0.046461 0.0177895
endloop
endfacet
facet normal -0.0318592 0.993347 -0.110668
outer loop
vertex -0.000431573 0.0470424 -0.00272256
vertex -0.0102251 0.0473737 0.00307071
vertex 0.00415958 0.0485707 0.00967348
endloop
endfacet
facet normal 0.620701 0.69067 -0.371086
outer loop
vertex 0.0476551 0.0293082 -0.0148293
vertex 0.0434068 0.0416461 0.00102826
vertex 0.0507909 0.0345045 8.72564e-05
endloop
endfacet
facet normal 0.609713 0.696412 -0.378497
outer loop
vertex 0.0330254 0.040883 -0.017099
vertex 0.0434068 0.0416461 0.00102826
vertex 0.0476551 0.0293082 -0.0148293
endloop
endfacet
facet normal 0.260752 0.80281 0.536194
outer loop
vertex 0.0292983 0.0433758 0.0160505
vertex 0.0246084 0.0367737 0.0282162
vertex 0.038002 0.0344014 0.0252547
endloop
endfacet
facet normal 0.239969 0.811456 0.532874
outer loop
vertex 0.00320193 0.0462406 0.0234401
vertex 0.0246084 0.0367737 0.0282162
vertex 0.0292983 0.0433758 0.0160505
endloop
endfacet
facet normal 0.624317 -0.77645 0.0857563
outer loop
vertex 0.0204636 -0.0463716 -0.0189098
vertex 0.042933 -0.0284587 -0.0203034
vertex 0.0285006 -0.0398104 -0.018014
endloop
endfacet
facet normal 0.621607 -0.78251 -0.0358277
outer loop
vertex 0.0248618 -0.0423745 -0.0299024
vertex 0.042933 -0.0284587 -0.0203034
vertex 0.0204636 -0.0463716 -0.0189098
endloop
endfacet
facet normal 0.613868 -0.769392 0.17664
outer loop
vertex 0.0341663 -0.0276495 0.0225619
vertex 0.0251565 -0.0364327 0.0156162
vertex 0.0327404 -0.0331225 0.00367846
endloop
endfacet
facet normal 0.573627 -0.781775 0.244499
outer loop
vertex 0.0206001 -0.0357547 0.0284739
vertex 0.0251565 -0.0364327 0.0156162
vertex 0.0341663 -0.0276495 0.0225619
endloop
endfacet
facet normal 0.938069 0.238935 0.250873
outer loop
vertex 0.0567752 0.00449778 0.0172514
vertex 0.0568942 0.014479 0.00730013
vertex 0.0505284 0.0317603 0.0146444
endloop
endfacet
facet normal 0.947703 0.219599 0.231594
outer loop
vertex 0.063287 0.00223455 -0.00724939
vertex 0.0568942 0.014479 0.00730013
vertex 0.0567752 0.00449778 0.0172514
endloop
endfacet
facet normal -0.327289 0.439543 0.836471
outer loop
vertex -0.0241924 0.0381113 0.0219068
vertex -0.0274709 0.0284741 0.0256881
vertex -0.0128682 0.0404263 0.0251212
endloop
endfacet
facet normal -0.48819 0.457653 0.743118
outer loop
vertex -0.0673085 0.0183339 0.00576175
vertex -0.0274709 0.0284741 0.0256881
vertex -0.0241924 0.0381113 0.0219068
endloop
endfacet
facet normal -0.32866 0.843314 0.42521
outer loop
vertex -0.0209399 0.0436826 0.0133713
vertex -0.0321539 0.0384123 0.0151561
vertex -0.0241924 0.0381113 0.0219068
endloop
endfacet
facet normal -0.353212 0.935525 0.00589481
outer loop
vertex -0.0531703 0.0341013 -0.0171377
vertex -0.060146 0.0314149 -0.00876712
vertex -0.026301 0.0441339 0.000647834
endloop
endfacet
facet normal -0.398294 0.0213539 0.917009
outer loop
vertex -0.0212007 -0.030335 0.0333711
vertex -0.0175588 -0.0133712 0.0345579
vertex -0.031622 -0.0287426 0.0288076
endloop
endfacet
facet normal -0.0624246 0.0723774 0.995422
outer loop
vertex 0.0265822 -0.00546869 0.0384479
vertex -0.00603831 -0.00314217 0.0362331
vertex 0.0164365 -0.0121482 0.0382973
endloop
endfacet
facet normal 0.160734 -0.752137 0.639104
outer loop
vertex 0.00159765 -0.0407343 0.0288901
vertex 0.0102972 -0.0349517 0.0335075
vertex -0.00802452 -0.042016 0.0298017
endloop
endfacet
facet normal 0.219229 -0.788577 0.57453
outer loop
vertex 0.0206001 -0.0357547 0.0284739
vertex 0.0102972 -0.0349517 0.0335075
vertex 0.00159765 -0.0407343 0.0288901
endloop
endfacet
facet normal -0.37909 0.0616655 0.923303
outer loop
vertex -0.04174 0.0166096 0.0226272
vertex -0.0175588 -0.0133712 0.0345579
vertex -0.0204382 0.00837881 0.031923
endloop
endfacet
facet normal -0.004495 -0.0497363 0.998752
outer loop
vertex 0.0164365 -0.0121482 0.0382973
vertex 0.00880526 -0.0254891 0.0375986
vertex 0.0282741 -0.0163039 0.0381436
endloop
endfacet
facet normal 0.112272 -0.99265 0.0451883
outer loop
vertex -0.0109893 -0.0526929 0.00894091
vertex -0.00424224 -0.0526479 -0.00683396
vertex 0.0102638 -0.0515034 -0.0177339
endloop
endfacet
facet normal -0.162417 -0.984072 -0.0722748
outer loop
vertex -0.0094816 -0.0507689 -0.0206437
vertex -0.00424224 -0.0526479 -0.00683396
vertex -0.0109893 -0.0526929 0.00894091
endloop
endfacet
facet normal -0.775045 -0.38229 0.50315
outer loop
vertex -0.0484528 -0.0235192 0.0180421
vertex -0.0465294 -0.0381277 0.00990548
vertex -0.042069 -0.0312569 0.0219966
endloop
endfacet
facet normal -0.531194 -0.805811 -0.261729
outer loop
vertex -0.0242379 -0.0493404 -0.000814966
vertex -0.0465294 -0.0381277 0.00990548
vertex -0.0392189 -0.0390035 -0.0022354
endloop
endfacet
facet normal -0.304334 -0.575287 0.759227
outer loop
vertex -0.0212007 -0.030335 0.0333711
vertex -0.0371345 -0.0408625 0.0190071
vertex -0.00802452 -0.042016 0.0298017
endloop
endfacet
facet normal -0.410189 -0.456451 0.789555
outer loop
vertex -0.042069 -0.0312569 0.0219966
vertex -0.0371345 -0.0408625 0.0190071
vertex -0.0212007 -0.030335 0.0333711
endloop
endfacet
facet normal -0.539732 0.10078 0.835782
outer loop
vertex -0.04174 0.0166096 0.0226272
vertex -0.0540037 0.0146201 0.0149475
vertex -0.0662345 0.00464041 0.00825241
endloop
endfacet
facet normal -0.540871 0.121051 0.832349
outer loop
vertex -0.0673085 0.0183339 0.00576175
vertex -0.0540037 0.0146201 0.0149475
vertex -0.04174 0.0166096 0.0226272
endloop
endfacet
facet normal -0.816959 -0.358962 0.451358
outer loop
vertex -0.0662345 0.00464041 0.00825241
vertex -0.0465294 -0.0381277 0.00990548
vertex -0.0484528 -0.0235192 0.0180421
endloop
endfacet
facet normal -0.800748 0.0458302 0.597246
outer loop
vertex -0.0673085 0.0183339 0.00576175
vertex -0.0746894 0.0137148 -0.0037797
vertex -0.0662345 0.00464041 0.00825241
endloop
endfacet
facet normal -0.670024 -0.511606 0.537892
outer loop
vertex -0.042069 -0.0312569 0.0219966
vertex -0.0465294 -0.0381277 0.00990548
vertex -0.0371345 -0.0408625 0.0190071
endloop
endfacet
facet normal -0.442709 -0.875444 0.193927
outer loop
vertex -0.0371345 -0.0408625 0.0190071
vertex -0.0465294 -0.0381277 0.00990548
vertex -0.0210353 -0.0505204 0.012161
endloop
endfacet
facet normal -0.1808 0.0302798 -0.983054
outer loop
vertex -0.0485107 0.0262849 -0.027922
vertex -0.00275339 0.0121816 -0.0367719
vertex -0.0495706 0.0144796 -0.0280907
endloop
endfacet
facet normal -0.080255 0.32986 -0.940612
outer loop
vertex 0.0118412 0.0229794 -0.0342305
vertex -0.00275339 0.0121816 -0.0367719
vertex -0.0485107 0.0262849 -0.027922
endloop
endfacet
facet normal 0.178206 0.979366 0.0953116
outer loop
vertex 0.0292983 0.0433758 0.0160505
vertex 0.0310017 0.0443181 0.00318398
vertex 0.00415958 0.0485707 0.00967348
endloop
endfacet
facet normal 0.22621 0.968839 0.100896
outer loop
vertex 0.0434068 0.0416461 0.00102826
vertex 0.0310017 0.0443181 0.00318398
vertex 0.0292983 0.0433758 0.0160505
endloop
endfacet
facet normal 0.0518996 0.386989 0.920623
outer loop
vertex 0.0246084 0.0367737 0.0282162
vertex 0.0111038 0.0410961 0.0271606
vertex 0.0164719 0.0273367 0.0326418
endloop
endfacet
facet normal 0.190776 0.750563 0.632661
outer loop
vertex 0.00320193 0.0462406 0.0234401
vertex 0.0111038 0.0410961 0.0271606
vertex 0.0246084 0.0367737 0.0282162
endloop
endfacet
facet normal 0.135647 0.185063 0.97332
outer loop
vertex 0.0394628 0.0186458 0.0326501
vertex 0.0306377 0.0230269 0.033047
vertex 0.0281152 0.00804644 0.0362469
endloop
endfacet
facet normal 0.245661 0.415507 0.875788
outer loop
vertex 0.0246084 0.0367737 0.0282162
vertex 0.0306377 0.0230269 0.033047
vertex 0.0394628 0.0186458 0.0326501
endloop
endfacet
facet normal -0.339709 0.169984 0.925042
outer loop
vertex -0.0155163 0.0195783 0.0317129
vertex -0.0274709 0.0284741 0.0256881
vertex -0.0284739 0.0162621 0.0275638
endloop
endfacet
facet normal -0.299486 0.225424 0.927088
outer loop
vertex -0.0110653 0.0305819 0.0304752
vertex -0.0274709 0.0284741 0.0256881
vertex -0.0155163 0.0195783 0.0317129
endloop
endfacet
facet normal -0.422778 0.874526 0.237618
outer loop
vertex -0.0699066 0.0249971 -0.00251341
vertex -0.0361106 0.039526 0.00414517
vertex -0.060146 0.0314149 -0.00876712
endloop
endfacet
facet normal -0.503977 0.600168 0.621132
outer loop
vertex -0.0241924 0.0381113 0.0219068
vertex -0.0321539 0.0384123 0.0151561
vertex -0.0699066 0.0249971 -0.00251341
endloop
endfacet
facet normal -0.0723575 0.0477756 0.996234
outer loop
vertex -0.00603831 -0.00314217 0.0362331
vertex -0.000837013 -0.0189729 0.03737
vertex 0.0164365 -0.0121482 0.0382973
endloop
endfacet
facet normal -0.339072 0.166384 0.92593
outer loop
vertex -0.0284739 0.0162621 0.0275638
vertex -0.0204382 0.00837881 0.031923
vertex -0.0155163 0.0195783 0.0317129
endloop
endfacet
facet normal -0.507643 0.00415519 0.861557
outer loop
vertex -0.0662345 0.00464041 0.00825241
vertex -0.031622 -0.0287426 0.0288076
vertex -0.04174 0.0166096 0.0226272
endloop
endfacet
facet normal -0.538823 -0.0405595 0.841442
outer loop
vertex -0.042069 -0.0312569 0.0219966
vertex -0.031622 -0.0287426 0.0288076
vertex -0.0662345 0.00464041 0.00825241
endloop
endfacet
facet normal -0.156679 0.019441 0.987458
outer loop
vertex -0.00895168 -0.0288464 0.0362769
vertex -0.000837013 -0.0189729 0.03737
vertex -0.00603831 -0.00314217 0.0362331
endloop
endfacet
facet normal 0.00651665 -0.39597 0.91824
outer loop
vertex 0.0102972 -0.0349517 0.0335075
vertex 0.00880526 -0.0254891 0.0375986
vertex -0.00895168 -0.0288464 0.0362769
endloop
endfacet
facet normal -0.0589745 0.116914 0.99139
outer loop
vertex 0.0265822 -0.00546869 0.0384479
vertex -0.00342211 0.0160631 0.0341238
vertex -0.00603831 -0.00314217 0.0362331
endloop
endfacet
facet normal -0.157668 0.129001 0.97903
outer loop
vertex -0.00603831 -0.00314217 0.0362331
vertex -0.00342211 0.0160631 0.0341238
vertex -0.0155163 0.0195783 0.0317129
endloop
endfacet
facet normal -0.866031 -0.386769 0.31686
outer loop
vertex -0.0746894 0.0137148 -0.0037797
vertex -0.0465294 -0.0381277 0.00990548
vertex -0.0662345 0.00464041 0.00825241
endloop
endfacet
facet normal -0.582493 -0.494875 -0.644825
outer loop
vertex -0.0094816 -0.0507689 -0.0206437
vertex -0.042439 -0.0293865 -0.0072822
vertex -0.0701962 0.0154523 -0.01662
endloop
endfacet
facet normal -0.81425 -0.464775 -0.347823
outer loop
vertex -0.0701962 0.0154523 -0.01662
vertex -0.0655536 -0.00388215 -0.00165274
vertex -0.0746894 0.0137148 -0.0037797
endloop
endfacet
facet normal -0.803768 -0.472682 -0.361288
outer loop
vertex -0.0515413 -0.0304751 0.00196568
vertex -0.0655536 -0.00388215 -0.00165274
vertex -0.0701962 0.0154523 -0.01662
endloop
endfacet
facet normal -0.044549 0.19422 0.979946
outer loop
vertex 0.00124635 0.0334101 0.030898
vertex -0.00342211 0.0160631 0.0341238
vertex 0.0106038 0.0159664 0.0347806
endloop
endfacet
facet normal -0.0801506 0.203046 0.975883
outer loop
vertex -0.0110653 0.0305819 0.0304752
vertex -0.00342211 0.0160631 0.0341238
vertex 0.00124635 0.0334101 0.030898
endloop
endfacet
facet normal -0.161191 0.0199512 0.986722
outer loop
vertex -0.00603831 -0.00314217 0.0362331
vertex -0.0175588 -0.0133712 0.0345579
vertex -0.00895168 -0.0288464 0.0362769
endloop
endfacet
facet normal -0.260693 0.0820191 0.961931
outer loop
vertex -0.0175588 -0.0133712 0.0345579
vertex -0.0182505 -0.00217137 0.0334155
vertex -0.0204382 0.00837881 0.031923
endloop
endfacet
facet normal -0.0631115 -0.0584366 0.996294
outer loop
vertex 0.00880526 -0.0254891 0.0375986
vertex -0.000837013 -0.0189729 0.03737
vertex -0.00895168 -0.0288464 0.0362769
endloop
endfacet
facet normal -0.0425691 -0.0279546 0.998702
outer loop
vertex 0.0164365 -0.0121482 0.0382973
vertex -0.000837013 -0.0189729 0.03737
vertex 0.00880526 -0.0254891 0.0375986
endloop
endfacet
facet normal -0.588445 -0.497074 -0.637691
outer loop
vertex -0.042439 -0.0293865 -0.0072822
vertex -0.0515413 -0.0304751 0.00196568
vertex -0.0701962 0.0154523 -0.01662
endloop
endfacet
facet normal -0.584859 -0.504629 -0.635051
outer loop
vertex -0.0094816 -0.0507689 -0.0206437
vertex -0.0515413 -0.0304751 0.00196568
vertex -0.042439 -0.0293865 -0.0072822
endloop
endfacet
facet normal -0.362899 0.913218 0.185304
outer loop
vertex -0.026301 0.0441339 0.000647834
vertex -0.0361106 0.039526 0.00414517
vertex -0.0209399 0.0436826 0.0133713
endloop
endfacet
facet normal -0.381312 0.914487 0.13533
outer loop
vertex -0.060146 0.0314149 -0.00876712
vertex -0.0361106 0.039526 0.00414517
vertex -0.026301 0.0441339 0.000647834
endloop
endfacet
facet normal -0.217508 0.0857422 0.972285
outer loop
vertex -0.00603831 -0.00314217 0.0362331
vertex -0.0182505 -0.00217137 0.0334155
vertex -0.0175588 -0.0133712 0.0345579
endloop
endfacet
facet normal -0.21686 0.0925059 0.97181
outer loop
vertex -0.0204382 0.00837881 0.031923
vertex -0.0182505 -0.00217137 0.0334155
vertex -0.00603831 -0.00314217 0.0362331
endloop
endfacet
facet normal -0.884638 -0.449044 0.125603
outer loop
vertex -0.0465294 -0.0381277 0.00990548
vertex -0.0655536 -0.00388215 -0.00165274
vertex -0.0515413 -0.0304751 0.00196568
endloop
endfacet
facet normal -0.884905 -0.441466 0.148495
outer loop
vertex -0.0746894 0.0137148 -0.0037797
vertex -0.0655536 -0.00388215 -0.00165274
vertex -0.0465294 -0.0381277 0.00990548
endloop
endfacet
endsolid netdem
